<?xml version="1.0" encoding="UTF-8" standalone="no"?>
<!-- Created with Inkscape (http://www.inkscape.org/) -->

<svg
   xmlns:dc="http://purl.org/dc/elements/1.1/"
   xmlns:cc="http://creativecommons.org/ns#"
   xmlns:rdf="http://www.w3.org/1999/02/22-rdf-syntax-ns#"
   xmlns:svg="http://www.w3.org/2000/svg"
   xmlns="http://www.w3.org/2000/svg"
   xmlns:sodipodi="http://sodipodi.sourceforge.net/DTD/sodipodi-0.dtd"
   xmlns:inkscape="http://www.inkscape.org/namespaces/inkscape"
   id="svg3355"
   version="1.1"
   inkscape:version="0.91 r13725"
   xml:space="preserve"
   width="343.85001"
   height="172.7375"
   viewBox="0 0 343.85001 172.7375"
   sodipodi:docname="AGROHOLDING_2012_logo.svg"
   inkscape:export-filename="/home/iraqez/WebstormProjects/agroholding_site/images/AGROHOLDING_2012_logo.svg.png"
   inkscape:export-xdpi="90"
   inkscape:export-ydpi="90"><metadata
     id="metadata3361"><rdf:RDF><cc:Work
         rdf:about=""><dc:format>image/svg+xml</dc:format><dc:type
           rdf:resource="http://purl.org/dc/dcmitype/StillImage" /><dc:title></dc:title></cc:Work></rdf:RDF></metadata><defs
     id="defs3359" /><sodipodi:namedview
     pagecolor="#ffffff"
     bordercolor="#666666"
     borderopacity="1"
     objecttolerance="10"
     gridtolerance="10"
     guidetolerance="10"
     inkscape:pageopacity="0"
     inkscape:pageshadow="2"
     inkscape:window-width="1366"
     inkscape:window-height="708"
     id="namedview3357"
     showgrid="false"
     inkscape:zoom="3.0508719"
     inkscape:cx="106.86164"
     inkscape:cy="86.368752"
     inkscape:window-x="0"
     inkscape:window-y="0"
     inkscape:window-maximized="1"
     inkscape:current-layer="g3363" /><g
     id="g3363"
     inkscape:groupmode="layer"
     inkscape:label="ink_ext_XXXXXX"
     transform="matrix(1.25,0,0,-1.25,0,172.7375)"><g
       id="g3365"
       transform="scale(0.1,0.1)"><path
         d="m 2411.28,935.785 -0.02,-0.019 0,0 c 0,0 0,0 0.02,0.019"
         style="fill:#fbc707;fill-opacity:1;fill-rule:nonzero;stroke:none"
         id="path3367"
         inkscape:connector-curvature="0" /><path
         d="m 2446.48,935.785 -0.02,-0.019 0,0 c 0,0 0,0 0.02,0.019"
         style="fill:#fbc707;fill-opacity:1;fill-rule:nonzero;stroke:none"
         id="path3369"
         inkscape:connector-curvature="0" /><path
         d="m 2356.54,1002.38 c 1.96,19.03 13.21,152.64 -37.78,267.05 5.41,1.93 10.88,3.8 16.37,5.55 52.17,-116.76 30.24,-255.45 26.92,-274.67 -2.33,0.92 -4.15,1.58 -5.51,2.07"
         style="fill:#fbc707;fill-opacity:1;fill-rule:nonzero;stroke:none"
         id="path3371"
         inkscape:connector-curvature="0" /><path
         d="m 2455.65,1104.9 -2.93,0.23 c -1.03,0.09 -2.01,-0.14 -2.89,-0.54 -1.04,20.63 -7.26,103.23 -41.97,189.44 5.78,1.23 11.53,2.42 17.24,3.49 33.97,-85.79 32.05,-169.57 30.79,-192.6 -0.09,-0.01 -0.11,-0.03 -0.24,-0.02"
         style="fill:#fbc707;fill-opacity:1;fill-rule:nonzero;stroke:none"
         id="path3373"
         inkscape:connector-curvature="0" /><path
         d="m 2526.78,977.938 c 4.14,26.392 20.69,161.972 -37.19,329.872 5.67,0.74 11.18,1.41 16.46,2.03 59.13,-173.45 31.09,-310.25 26.15,-331.367 -1.66,-0.086 -3.51,-0.289 -5.42,-0.535"
         style="fill:#fbc707;fill-opacity:1;fill-rule:nonzero;stroke:none"
         id="path3375"
         inkscape:connector-curvature="0" /><path
         d="m 2165.24,1104.88 c 3.31,-13.76 4.13,-24.55 3.7,-33.12 -6.62,-7.33 -12.39,-15.43 -16.16,-23.9 -1.39,-3.09 -2.52,-6.09 -3.64,-9.09 -0.28,-0.05 -0.48,-0.16 -0.74,-0.19 -0.4,-0.06 -0.8,0.02 -1.2,-0.01 -2.07,2.43 -3.95,4.87 -6.35,7.34 l -0.04,0.01 c -6.93,7.07 -15.25,12.28 -23.94,16.2 -4.12,8.02 -7.74,17.7 -10.52,29.29 -5.04,21.31 -3.38,51.01 4.85,88.16 4.33,-3.28 11.59,-9.48 19.61,-17.87 13.65,-14.23 29.11,-34.52 34.43,-56.82"
         style="fill:#fbc707;fill-opacity:1;fill-rule:nonzero;stroke:none"
         id="path3377"
         inkscape:connector-curvature="0" /><path
         d="m 2167.9,968.313 c -2.17,0.898 -4.32,2.046 -6.3,3.652 8.21,13.445 8.05,35.055 -8.26,58.635 1.52,4.69 3.26,9.5 5.51,14.49 l 0.01,0.04 c 12.83,28.76 46.47,48.58 57.37,54.42 2.91,-13.46 17.28,-49.64 -0.31,-91.28 -15.46,-8.17 -35.46,-21.567 -48.02,-39.957"
         style="fill:#fbc707;fill-opacity:1;fill-rule:nonzero;stroke:none"
         id="path3379"
         inkscape:connector-curvature="0" /><path
         d="m 2092.63,994.684 c -11.68,15.796 -21.75,39.996 -29.94,72.086 13.83,-0.25 49.26,-4.99 71.3,-27.4 0.3,-0.31 0.59,-0.66 0.91,-0.96 27.2,-28.41 25.76,-57.226 14.74,-70.269 -0.7,-0.848 -1.23,-1.309 -1.82,-1.832 -15.67,16.285 -37.77,24.472 -55.19,28.375"
         style="fill:#fbc707;fill-opacity:1;fill-rule:nonzero;stroke:none"
         id="path3381"
         inkscape:connector-curvature="0" /><path
         d="m 2172.19,879.477 c -2.47,1.211 -4.83,2.765 -6.98,4.929 10.02,12.879 12.26,35.055 -2.07,60.879 2.06,4.66 4.36,9.418 7.18,14.32 l 0.03,0.036 c 16.21,28.519 53.04,45.519 64.49,50.219 1.71,-14.165 4.73,-64.719 -11.05,-96.102 -16.11,-6.66 -37.03,-17.723 -51.6,-34.281"
         style="fill:#fbc707;fill-opacity:1;fill-rule:nonzero;stroke:none"
         id="path3383"
         inkscape:connector-curvature="0" /><path
         d="m 2157.5,885.359 c -2.89,-2.847 -6.1,-4.644 -9.58,-5.617 -13.34,14.363 -31.61,23.363 -46.66,28.77 -8.74,12.035 -20.5,36.113 -27.63,82.742 13.26,-1.504 48.75,-7.457 69.77,-29.414 1.16,-1.219 2.26,-2.445 3.35,-3.762 24.75,-30.855 24.19,-59.926 10.75,-72.719"
         style="fill:#fbc707;fill-opacity:1;fill-rule:nonzero;stroke:none"
         id="path3385"
         inkscape:connector-curvature="0" /><path
         d="m 2167.19,799.734 c 6.05,13.125 6.4,31.586 -2.41,52.594 2.95,4.887 6.23,9.86 10.08,15.09 l 0.01,0.051 c 20.21,27.851 57.97,43.273 69.92,46.734 0.25,-12.973 -1.76,-59.293 -18.11,-90.578 -16.96,-3.242 -40.9,-10.074 -59.49,-23.891"
         style="fill:#fbc707;fill-opacity:1;fill-rule:nonzero;stroke:none"
         id="path3387"
         inkscape:connector-curvature="0" /><path
         d="m 2139.48,873.574 c 2.85,-3.004 5.53,-6.265 7.79,-9.777 21.95,-34.516 17.15,-58.117 1.55,-69.567 -5.53,-4.253 -8.3,-9.023 -14.74,-7.695 -8.49,9.363 -18.79,16.774 -28.73,22.504 -2.67,3.645 -5.28,7.656 -7.83,12.094 -10.63,18.621 -17.03,47.957 -18.94,87.105 12.39,-2.695 40.99,-13.871 60.9,-34.664"
         style="fill:#fbc707;fill-opacity:1;fill-rule:nonzero;stroke:none"
         id="path3389"
         inkscape:connector-curvature="0" /><path
         d="m 2156.79,718.875 c 1.24,13.164 -1.25,29.008 -9.01,46.555 4.41,5.906 9.55,11.953 15.6,18.211 l 0.05,0.043 c 24.41,26.004 67.72,34.5 80.72,35.816 -1.86,-12.773 -12.09,-60.043 -34.74,-89.703 -14.87,-0.93 -34.58,-3.891 -52.62,-10.922"
         style="fill:#fbc707;fill-opacity:1;fill-rule:nonzero;stroke:none"
         id="path3391"
         inkscape:connector-curvature="0" /><path
         d="m 2140.69,765.332 c 9.43,-20.078 10.89,-37.051 7.74,-50.07 -5.82,-2.809 -11.35,-6.086 -16.27,-9.969 -7.24,-5.563 -13.36,-11.234 -18.81,-16.938 -6.61,6.016 -13.62,11.27 -20.5,15.446 -4.42,6.25 -8.58,13.804 -12.25,22.715 -12.34,30.129 -9.16,74.918 -8.09,89.609 0,0.262 0,0.262 -0.01,0.445 3.61,-1.218 41.95,-19.086 55.2,-32.929 5.16,-5.399 9.69,-11.465 12.99,-18.309"
         style="fill:#fbc707;fill-opacity:1;fill-rule:nonzero;stroke:none"
         id="path3393"
         inkscape:connector-curvature="0" /><path
         d="m 2136.83,653.902 c -3.44,10.875 -9.69,20.125 -17.02,28.133 5.36,5.34 11.47,10.707 18.48,16.11 l 0.04,0.003 c 29.12,23 74.92,25.543 88.36,25.243 -4.54,-14.719 -26.96,-74.528 -61.71,-97.598 -8.27,-5.707 -16.2,-9.852 -23.64,-12.555 1.25,11.84 0.13,25.461 -4.5,40.629 l -0.01,0.035"
         style="fill:#fbc707;fill-opacity:1;fill-rule:nonzero;stroke:none"
         id="path3395"
         inkscape:connector-curvature="0" /><path
         d="m 2062.98,621.977 c -7.7,31.925 -0.69,73.886 1.55,87.699 0.09,0.312 0.09,0.535 0.16,0.847 9.99,-4.023 30.49,-16.386 47.01,-33.648 7.29,-7.605 13.37,-16.523 16.62,-26.832 12.63,-41.422 1.05,-68.66 -18.31,-75.211 -7.12,-2.543 -13.87,-2.129 -20.05,1.207 -2.8,1.5 -5.49,3.59 -8.05,6.211 -7.85,8.223 -14.28,21.676 -18.93,39.727"
         style="fill:#fbc707;fill-opacity:1;fill-rule:nonzero;stroke:none"
         id="path3397"
         inkscape:connector-curvature="0" /><path
         d="m 2062.71,1076.13 -2.18,0.03 c -2.6,9.44 -37.71,129.98 -118.71,213.97 4.06,3.09 8.18,6.16 12.35,9.21 82.55,-85.9 109.68,-214.4 111.53,-223.35 -1.36,0.07 -2.48,0.12 -2.99,0.14"
         style="fill:#fbc707;fill-opacity:1;fill-rule:nonzero;stroke:none"
         id="path3399"
         inkscape:connector-curvature="0" /><path
         d="m 2102.57,1195.24 c -9.24,20.92 -41.14,83.23 -93.16,141.62 4.41,2.83 8.81,5.59 13.15,8.29 53.01,-60.31 79.78,-128.08 87.3,-149.1 0.54,-1.58 1,-2.89 1.37,-3.92 l -6.08,-2.9 c -0.48,1.18 -1.34,3.23 -2.58,6.01"
         style="fill:#fbc707;fill-opacity:1;fill-rule:nonzero;stroke:none"
         id="path3401"
         inkscape:connector-curvature="0" /><path
         d="m 2211.65,1107.8 c -1.35,-0.71 -3.09,-1.73 -4.75,-2.7 -2.36,12.73 -28.49,138.5 -134.87,269.59 4.52,2.6 8.78,5 12.76,7.24 110.08,-136.3 127.03,-267.44 127.8,-273.62 l -0.94,-0.51"
         style="fill:#fbc707;fill-opacity:1;fill-rule:nonzero;stroke:none"
         id="path3403"
         inkscape:connector-curvature="0" /><path
         d="m 2411.75,854.051 c -0.86,-0.492 -1.62,-0.903 -2.31,-1.196 -10.1,23.016 -30.63,39.997 -47.49,50.754 -6.09,20.938 -7.16,49.946 -3.19,86.407 14.49,-5.571 50.04,-24.114 64.52,-55.891 0.21,-0.469 0.4,-0.875 0.6,-1.336 17.52,-39.973 4.67,-69.387 -12.13,-78.738"
         style="fill:#fbc707;fill-opacity:1;fill-rule:nonzero;stroke:none"
         id="path3405"
         inkscape:connector-curvature="0" /><path
         d="m 2431.12,847.184 c -2.18,1.949 -4.2,4.222 -5.79,7.027 12.1,11.238 18.88,32.059 12.3,59.867 4.06,5.442 8.67,10.934 14.19,16.43 l 0.02,0.027 c 24.9,25.012 68.26,32.727 82.05,34.594 -2.23,-15.121 -1.29,-58.242 -36.3,-94.785 -19.56,-2.571 -45.98,-8.856 -66.47,-23.16"
         style="fill:#fbc707;fill-opacity:1;fill-rule:nonzero;stroke:none"
         id="path3407"
         inkscape:connector-curvature="0" /><path
         d="m 2482.12,990.285 c -1.92,-15.609 -5.3,-27.133 -9.12,-35.847 -9.9,-5.098 -19.21,-11.305 -26.54,-18.672 -2.69,-2.707 -5.06,-5.383 -7.45,-8.075 -0.26,0.055 -0.53,0.016 -0.8,0.079 -1.96,0.418 -3.77,1.113 -5.49,1.957 -0.95,2.382 -1.59,4.664 -2.72,7.113 l 0,0.035 c -3.77,8.254 -9.02,15.52 -14.99,22.016 -2.07,10.98 -2.36,24.339 -0.43,39.976 3.1,24.113 16.55,54.353 39.88,89.843 3.28,-5.08 8.52,-14.3 13.71,-26.12 8.81,-20.05 17.13,-47.11 13.95,-72.305"
         style="fill:#fbc707;fill-opacity:1;fill-rule:nonzero;stroke:none"
         id="path3409"
         inkscape:connector-curvature="0" /><path
         d="m 2400.65,753.18 c -2.1,2.164 -3.98,4.675 -5.39,7.691 15.65,9.567 26.65,31.871 21.74,64.203 4.01,4.074 8.32,8.145 13.22,12.156 l 0.02,0.008 c 28.4,23.43 74.03,26.965 87.95,27.489 -3.75,-15.375 -20.49,-69.184 -49.52,-95.707 -19.63,-0.743 -46.11,-4.2 -68.02,-15.84"
         style="fill:#fbc707;fill-opacity:1;fill-rule:nonzero;stroke:none"
         id="path3411"
         inkscape:connector-curvature="0" /><path
         d="m 2335.58,816.957 c -3.46,16.973 -4.53,45.281 4.98,90.324 13.39,-6.676 48.57,-26.488 62.13,-57.398 0.74,-1.684 1.44,-3.406 2.04,-5.188 14,-41.562 1.93,-71.586 -17.31,-79.742 -3.42,-1.547 -6.81,-2.289 -10.14,-2.359 -8.02,23.261 -26.39,42.004 -41.7,54.363"
         style="fill:#fbc707;fill-opacity:1;fill-rule:nonzero;stroke:none"
         id="path3413"
         inkscape:connector-curvature="0" /><path
         d="m 2351.99,668.871 c 17.06,7.676 30.23,28.477 30.33,59.094 5,3.906 10.33,7.789 16.38,11.676 l 0.05,0.007 c 32.29,21.254 78.26,22.762 92.26,21.77 -5.43,-15.215 -30.38,-72.941 -66,-95.719 -20.16,2.34 -45.85,2.457 -68.33,-5.929 -1.99,2.589 -3.59,5.628 -4.69,9.101"
         style="fill:#fbc707;fill-opacity:1;fill-rule:nonzero;stroke:none"
         id="path3415"
         inkscape:connector-curvature="0" /><path
         d="m 2313.2,823.988 c 12.02,-7.562 37.79,-30.152 50.69,-59.422 1.82,-4.226 3.32,-8.605 4.36,-13.183 9.56,-44.25 -4.79,-67.02 -25.78,-72.938 -3.56,-1.066 -6.52,-2.492 -9.3,-3.308 -5.68,23.804 -21.19,44.062 -35.11,58.117 -2.01,22.836 3.03,53.297 15.14,90.734"
         style="fill:#fbc707;fill-opacity:1;fill-rule:nonzero;stroke:none"
         id="path3417"
         inkscape:connector-curvature="0" /><path
         d="m 2334.56,636.988 c 5.77,3.399 11.88,6.735 18.75,9.981 l 0.06,0.019 c 36.05,17.668 85.17,9.864 99.41,6.231 -7.84,-13.981 -43.6,-68.75 -84.76,-86.598 -20.34,4.785 -45.88,7.859 -68.92,3.246 -1.99,3.113 -3.26,6.797 -3.93,10.852 18.72,5.187 35.22,24.66 39.39,56.269"
         style="fill:#fbc707;fill-opacity:1;fill-rule:nonzero;stroke:none"
         id="path3419"
         inkscape:connector-curvature="0" /><path
         d="m 2275.8,742.781 c 0.09,0.227 0.09,0.227 0.17,0.446 3.34,-2.668 36.79,-35.969 45.33,-55.45 3.34,-7.597 5.7,-15.664 6.52,-24.047 3.85,-46.855 -18.09,-71.234 -40.55,-74.093 -4.23,-0.637 -7.82,-1.207 -11.16,-0.961 -0.86,8.265 -3,16.246 -6.07,23.777 -0.06,0.137 -0.12,0.328 -0.2,0.461 -1.13,2.758 -2.37,5.477 -3.7,8.121 -0.12,0.27 -0.26,0.535 -0.41,0.789 -1.39,2.68 -2.85,5.305 -4.36,7.836 -0.05,0.07 -0.09,0.153 -0.13,0.227 -3.81,6.246 -7.99,11.976 -12.2,17.179 -0.88,35.981 19.88,80.899 26.76,95.715"
         style="fill:#fbc707;fill-opacity:1;fill-rule:nonzero;stroke:none"
         id="path3421"
         inkscape:connector-curvature="0" /><path
         d="m 2225.38,485.879 c -1.82,3.812 -2.77,8.094 -2.73,12.781 19.71,2.383 39.92,19.934 49.04,51.426 6.57,2.73 13.5,5.316 21.19,7.672 l 0.04,0.012 c 39.84,12.718 89.21,-2.219 103.3,-7.668 -10.59,-13.606 -57.84,-67.2 -103.65,-77.872 -0.42,-0.113 -0.8,-0.179 -1.23,-0.273 -19.28,7.656 -43.1,14.356 -65.96,13.922"
         style="fill:#fbc707;fill-opacity:1;fill-rule:nonzero;stroke:none"
         id="path3423"
         inkscape:connector-curvature="0" /><path
         d="m 2185.51,566.301 c 0.17,2.097 0.19,4.07 0.41,6.254 4.45,36.199 28.38,77.16 36.22,90.605 0.22,0.352 0.31,0.547 0.49,0.867 8.95,-8.035 25.74,-28.781 36.4,-53.047 4.67,-10.718 7.6,-22.332 6.99,-34.32 -2.96,-47.898 -25.95,-71.805 -48.96,-71.18 -5.37,0.09 -10.04,1.426 -14.13,3.75 0.53,13.668 -2.64,27.227 -8.05,39.579 -2.73,6.234 -5.99,11.992 -9.37,17.492"
         style="fill:#fbc707;fill-opacity:1;fill-rule:nonzero;stroke:none"
         id="path3425"
         inkscape:connector-curvature="0" /><path
         d="m 2135,411.68 c -1.55,4.519 -1.95,9.429 -1,14.574 20.76,-0.758 44.42,13.855 58.73,44.258 7.2,1.746 14.79,3.324 23.17,4.578 42.82,6.16 92.15,-18.012 105.84,-25.899 -13.68,-12.144 -72.19,-58.261 -121.03,-61.449 -1.83,-0.179 -3.52,-0.207 -5.28,-0.304 -17.77,10.687 -39.1,20.679 -60.43,24.242"
         style="fill:#fbc707;fill-opacity:1;fill-rule:nonzero;stroke:none"
         id="path3427"
         inkscape:connector-curvature="0" /><path
         d="m 2154.96,592.938 c 0.21,0.3 0.31,0.476 0.5,0.769 7.37,-7.781 19.91,-26.848 29.64,-48.988 6.42,-14.684 9.09,-31.457 5.53,-47.395 l 0.99,0.387 c -10.46,-47.875 -40.36,-63.977 -64.04,-59.816 -5.5,1.066 -9.31,1.675 -12.49,3.523 3.46,19.687 -1.14,40.395 -7.94,58.074 0.55,2.531 1.17,5.094 1.89,7.754 10.67,35.926 37.18,73.356 45.92,85.692"
         style="fill:#fbc707;fill-opacity:1;fill-rule:nonzero;stroke:none"
         id="path3429"
         inkscape:connector-curvature="0" /><path
         d="m 2228.93,354.23 c -15.82,-10.21 -84.58,-48.781 -134.59,-43.89 -28.96,2.769 -50.38,12.711 -60.35,28.019 -5.12,7.832 -6.59,16.672 -4.79,25.282 20.86,-5.532 47.15,6.687 67.14,35.914 8.52,0.601 17.52,0.906 27.29,0.754 45.35,-0.922 92.54,-35.207 105.3,-46.079"
         style="fill:#fbc707;fill-opacity:1;fill-rule:nonzero;stroke:none"
         id="path3431"
         inkscape:connector-curvature="0" /><path
         d="m 2026.67,375.328 c -8.44,2.731 -14.41,7.996 -17.81,15.637 -0.01,0.039 -0.03,0.062 -0.02,0.113 -6.3,14.426 -2.89,36.422 9.62,61.86 11.8,23.871 34.13,48.351 63.7,78.589 3.96,-6.004 6.15,-14.941 12.05,-28.386 9.52,-21.739 14.94,-50.75 5.2,-74.789 l 1.32,2.203 C 2081.92,383.641 2050.36,367 2026.67,375.328"
         style="fill:#fbc707;fill-opacity:1;fill-rule:nonzero;stroke:none"
         id="path3433"
         inkscape:connector-curvature="0" /><path
         d="m 2257.6,112.191 c -73.05,17.539 -122.63,49.43 -187.13,63.098 -164.3,34.832 -292.51,-31.059 -333.9,-55.559 83.36,122.411 237.29,216.11 282.32,233.981 l -2.31,12.437 C 1997.3,353.699 1700.8,204.711 1672.26,35.6797 L 1684.85,0 c 1.32,7.82813 3.08,15.6094 5.23,23.3398 1.78,6.3907 12.79,28.6993 28.33,43.6797 52.54,50.6285 190.07,78.1795 274.72,78.3905 129.62,0.328 166.88,-42.422 266.44,-63.1912 76.14,-15.879 119.07,20.4102 119.07,20.4102 0,0 -55.97,-6.0509 -121.04,9.562"
         style="fill:#fbc707;fill-opacity:1;fill-rule:nonzero;stroke:none"
         id="path3435"
         inkscape:connector-curvature="0" /><path
         d="m 1945.26,215.23 c -52.29,-4.371 -97.74,-27.289 -95.6,-25.589 84.8,67.179 163.45,32.98 247.61,52.988 66.51,15.801 125.1,50.242 213.47,121.32 98.57,79.301 183.09,185.504 244.01,203.582 10.66,3.164 59.66,-11.703 106,-18.015 46.34,-6.317 90.02,-4.082 90.02,-4.082 -8.71,-1.704 -22.75,-26.461 -88.41,-26.95 -57.1,-0.421 -64.02,15.164 -96.31,5.075 -58.63,-18.325 -159.95,-133.024 -224.15,-189.11 -97.39,-85.09 -156.1,-110.961 -241.25,-121.949 -48.35,-6.238 -99.3,7.43 -155.39,2.73"
         style="fill:#fbc707;fill-opacity:1;fill-rule:nonzero;stroke:none"
         id="path3437"
         inkscape:connector-curvature="0" /><path
         d="m 1963.82,728.715 c -10.25,33.957 -36.76,82.695 -79.55,108.367 0.01,-0.008 39.66,-51.16 59.72,-117.109 16.45,-54.114 15.3,-122.368 5.71,-191.575 -6.49,-46.843 -25.26,-94.035 -46.94,-137.433 -14.11,-28.246 -94.79,-152.305 -66.8,-127.387 18.17,16.172 33.8,30.531 33.8,30.531 12.83,12.512 177.79,157.125 94.06,434.606"
         style="fill:#fbc707;fill-opacity:1;fill-rule:nonzero;stroke:none"
         id="path3439"
         inkscape:connector-curvature="0" /><path
         d="m 961.207,1059.77 c -2.363,6.36 -5.074,13.5 -8.141,21.41 -3.066,7.9 -6.015,15.57 -8.847,23 -2.828,7.43 -5.481,14.27 -7.961,20.53 -2.477,6.25 -4.422,10.91 -5.836,13.97 -1.418,-3.3 -3.313,-7.96 -5.66,-13.97 -2.364,-6.02 -4.957,-12.75 -7.789,-20.18 -2.836,-7.42 -5.782,-15.03 -8.848,-22.82 -3.07,-7.78 -5.898,-15.1 -8.492,-21.94 l 61.574,0 z M 797.711,953.953 c 4.957,13.215 10.973,28.602 18.047,46.187 7.082,17.57 14.687,36.21 22.828,55.91 8.141,19.69 16.633,39.82 25.477,60.34 8.851,20.52 17.519,40.34 26.015,59.45 4.473,10.14 9.961,17.22 16.453,21.23 6.489,4.02 15.043,6.02 25.66,6.02 4.008,0 7.961,-0.48 11.852,-1.41 3.895,-0.95 7.371,-2.07 10.445,-3.37 3.059,-1.29 5.532,-2.54 7.43,-3.71 1.883,-1.19 3.059,-1.9 3.539,-2.12 3.535,-5.91 8.195,-15.21 13.977,-27.96 5.781,-12.74 12.086,-27.07 18.929,-43 6.847,-15.93 13.917,-32.61 21.237,-50.08 7.31,-17.46 14.1,-34.03 20.35,-49.71 6.24,-15.69 11.73,-29.621 16.45,-41.769 4.72,-12.148 8.02,-20.82 9.91,-26.008 l -65.11,0 c -2.602,6.844 -5.43,14.453 -8.497,22.824 -3.066,8.371 -6.844,18.231 -11.324,29.543 l -102.984,0 c -3.778,-9.906 -7.133,-18.988 -10.082,-27.242 -2.954,-8.265 -6.079,-16.637 -9.375,-25.125 l -61.227,0"
         style="fill:#00adef;fill-opacity:1;fill-rule:nonzero;stroke:none"
         id="path3441"
         inkscape:connector-curvature="0" /><path
         d="m 1092.18,1163.1 c 0,22.42 11.68,33.62 35.04,33.62 l 112.89,0 c 10.85,0 18.58,-2.29 23.18,-6.9 4.6,-4.59 6.9,-11.27 6.9,-20 0,-6.36 -0.94,-12.21 -2.83,-17.51 -1.89,-5.31 -3.42,-8.92 -4.6,-10.79 l -111.48,0 0,-187.567 -59.1,0 0,209.147"
         style="fill:#00adef;fill-opacity:1;fill-rule:nonzero;stroke:none"
         id="path3443"
         inkscape:connector-curvature="0" /><path
         d="m 1354.41,1082.77 c 1.65,-0.23 4.54,-0.66 8.67,-1.23 4.12,-0.6 10.9,-0.9 20.35,-0.9 10.84,0 19.64,1.01 26.36,3.01 6.72,2 11.97,4.66 15.75,7.97 3.77,3.3 6.31,7.01 7.61,11.15 1.29,4.12 1.95,8.18 1.95,12.2 0,3.77 -0.54,7.67 -1.6,11.68 -1.06,4.01 -3.36,7.73 -6.9,11.15 -3.54,3.41 -8.67,6.24 -15.39,8.49 -6.73,2.24 -15.75,3.36 -27.08,3.36 -8.26,0 -14.98,-0.17 -20.17,-0.53 -5.19,-0.35 -8.37,-0.66 -9.55,-0.88 l 0,-65.47 z m -57.69,82.45 c 0,5.19 0.71,9.67 2.13,13.45 1.41,3.78 3.24,6.9 5.48,9.38 2.25,2.48 4.84,4.36 7.79,5.66 2.95,1.3 5.95,2.18 9.03,2.65 2.35,0.48 5.12,0.95 8.31,1.42 3.18,0.48 7.19,0.88 12.03,1.24 4.83,0.36 10.73,0.64 17.7,0.88 6.95,0.24 15.39,0.36 25.3,0.36 21.23,0 38.93,-2.42 53.08,-7.26 14.16,-4.84 25.54,-11.21 34.15,-19.11 8.61,-7.91 14.74,-16.98 18.4,-27.24 3.66,-10.27 5.49,-20.83 5.49,-31.68 0,-12.51 -2.01,-23.95 -6.01,-34.33 -4.02,-10.37 -10.27,-19.28 -18.76,-26.71 -8.5,-7.43 -19.41,-13.23 -32.73,-17.34 -13.34,-4.14 -29.2,-6.19 -47.61,-6.19 -4.24,0 -8.37,0.1 -12.38,0.34 -4.02,0.24 -7.67,0.47 -10.97,0.71 -3.31,0.24 -6.08,0.54 -8.32,0.89 -2.25,0.35 -3.71,0.54 -4.42,0.54 l 0,-78.927 -57.69,0 0,211.267"
         style="fill:#00adef;fill-opacity:1;fill-rule:nonzero;stroke:none"
         id="path3445"
         inkscape:connector-curvature="0" /><path
         d="m 1651.85,1002.79 c 10.14,0 19.46,1.82 27.96,5.48 8.49,3.66 15.8,8.8 21.94,15.41 6.13,6.59 10.91,14.26 14.33,22.99 3.42,8.72 5.14,18.28 5.14,28.67 0,10.38 -1.72,19.99 -5.14,28.84 -3.42,8.85 -8.2,16.51 -14.33,23 -6.14,6.49 -13.45,11.56 -21.94,15.22 -8.5,3.65 -17.82,5.49 -27.96,5.49 -10.15,0 -19.47,-1.84 -27.96,-5.49 -8.49,-3.66 -15.8,-8.73 -21.94,-15.22 -6.14,-6.49 -10.91,-14.15 -14.33,-23 -3.42,-8.85 -5.13,-18.46 -5.13,-28.84 0,-10.39 1.71,-19.95 5.13,-28.67 3.42,-8.73 8.19,-16.4 14.33,-22.99 6.14,-6.61 13.45,-11.75 21.94,-15.41 8.49,-3.66 17.81,-5.48 27.96,-5.48 z m -131.29,72.55 c 0,17.92 3.36,34.68 10.08,50.25 6.73,15.57 15.99,29.07 27.79,40.52 11.79,11.44 25.71,20.46 41.75,27.07 16.04,6.61 33.27,9.91 51.67,9.91 18.4,0 35.63,-3.3 51.67,-9.91 16.04,-6.61 29.96,-15.63 41.76,-27.07 11.79,-11.45 21.06,-24.95 27.78,-40.52 6.72,-15.57 10.08,-32.33 10.08,-50.25 0,-17.93 -3.36,-34.69 -10.08,-50.26 -6.72,-15.57 -15.99,-29.072 -27.78,-40.51 -11.8,-11.453 -25.72,-20.48 -41.76,-27.078 -16.04,-6.605 -33.27,-9.91 -51.67,-9.91 -18.4,0 -35.63,3.305 -51.67,9.91 -16.04,6.598 -29.96,15.625 -41.75,27.078 -11.8,11.438 -21.06,24.94 -27.79,40.51 -6.72,15.57 -10.08,32.33 -10.08,50.26"
         style="fill:#00adef;fill-opacity:1;fill-rule:nonzero;stroke:none"
         id="path3447"
         inkscape:connector-curvature="0" /><path
         d="m 31.0195,621.82 c 2.1211,2.828 6.1368,8.078 12.0313,15.743 5.8984,7.671 12.9726,16.871 21.2305,27.613 8.2578,10.726 17.4023,22.519 27.4296,35.379 10.0231,12.859 19.9921,25.773 29.9061,38.75 -6.844,8.265 -13.512,16.23 -19.996,23.89 -6.4921,7.672 -12.4491,14.688 -17.871,21.059 -5.4297,6.371 -10.1484,11.91 -14.1562,16.637 -4.0157,4.711 -7.0743,8.254 -9.2032,10.609 -4.7226,5.422 -8.3164,10.438 -10.789,15.043 -2.4844,4.605 -3.7188,9.031 -3.7188,13.27 0,7.789 2.6563,13.859 7.961,18.226 5.3125,4.359 12.2109,6.543 20.7031,6.543 6.1367,0 11.1484,-0.644 15.039,-1.949 3.8946,-1.289 6.7774,-2.528 8.6758,-3.711 1.6446,-2.117 4.3633,-5.539 8.1333,-10.266 3.777,-4.711 8.257,-10.32 13.453,-16.808 5.183,-6.489 10.968,-13.793 17.34,-21.942 6.371,-8.133 13.089,-16.57 20.171,-25.297 5.422,7.305 10.555,14.215 15.391,20.704 4.832,6.488 9.203,12.32 13.098,17.519 3.89,5.188 7.132,9.555 9.726,13.082 2.594,3.543 4.364,5.899 5.313,7.082 3.301,4.25 6.246,7.727 8.843,10.438 2.594,2.711 5.313,4.894 8.141,6.554 2.832,1.645 5.84,2.828 9.024,3.539 3.183,0.7 6.902,1.055 11.148,1.055 4.719,0 9.141,-0.644 13.273,-1.949 4.125,-1.289 7.84,-2.762 11.149,-4.422 3.297,-1.645 6.066,-3.422 8.312,-5.305 2.243,-1.894 3.836,-3.304 4.778,-4.25 -1.887,-2.355 -5.543,-6.898 -10.969,-13.621 -5.43,-6.726 -11.914,-14.863 -19.461,-24.418 -7.555,-9.554 -15.875,-20.164 -24.949,-31.851 -9.09,-11.676 -18.352,-23.653 -27.785,-35.922 10.851,-13.438 21.589,-26.719 32.207,-39.801 10.617,-13.098 20.347,-25.129 29.195,-36.105 8.848,-10.961 16.457,-20.415 22.828,-28.309 6.363,-7.91 10.727,-13.508 13.09,-16.809 l -71.84,0 c -2.117,2.356 -5.191,6.133 -9.199,11.321 -4.016,5.183 -8.668,11.144 -13.981,17.871 -5.308,6.726 -11.144,14.097 -17.515,22.129 -6.371,8.011 -13.09,16.265 -20.172,24.769 -6.609,-8.504 -12.918,-16.703 -18.934,-24.601 -6.015,-7.911 -11.562,-15.215 -16.632,-21.942 -5.075,-6.726 -9.504,-12.687 -13.274,-17.875 -3.769,-5.183 -6.719,-9.082 -8.8437,-11.672 l -68.3008,0"
         style="fill:#00adef;fill-opacity:1;fill-rule:nonzero;stroke:none"
         id="path3449"
         inkscape:connector-curvature="0" /><path
         d="m 418.773,670.652 c 10.141,0 19.457,1.828 27.957,5.489 8.497,3.66 15.801,8.793 21.942,15.398 6.133,6.594 10.91,14.266 14.332,22.992 3.414,8.731 5.133,18.285 5.133,28.668 0,10.387 -1.719,19.996 -5.133,28.84 -3.422,8.859 -8.199,16.52 -14.332,23.008 -6.141,6.488 -13.445,11.555 -21.942,15.215 -8.5,3.66 -17.816,5.488 -27.957,5.488 -10.148,0 -19.468,-1.828 -27.957,-5.488 -8.496,-3.66 -15.808,-8.727 -21.941,-15.215 -6.141,-6.488 -10.918,-14.149 -14.332,-23.008 -3.426,-8.844 -5.137,-18.453 -5.137,-28.84 0,-10.383 1.711,-19.937 5.137,-28.668 3.414,-8.726 8.191,-16.398 14.332,-22.992 6.133,-6.605 13.445,-11.738 21.941,-15.398 8.489,-3.661 17.809,-5.489 27.957,-5.489 z M 287.48,743.199 c 0,17.93 3.364,34.684 10.083,50.254 6.726,15.57 15.984,29.078 27.785,40.527 11.793,11.438 25.711,20.454 41.757,27.059 16.04,6.609 33.266,9.914 51.668,9.914 18.399,0 35.622,-3.305 51.668,-9.914 16.039,-6.605 29.957,-15.621 41.758,-27.059 11.793,-11.449 21.059,-24.957 27.778,-40.527 6.726,-15.57 10.089,-32.324 10.089,-50.254 0,-17.926 -3.363,-34.679 -10.089,-50.254 -6.719,-15.566 -15.985,-29.074 -27.778,-40.511 -11.801,-11.45 -25.719,-20.481 -41.758,-27.075 -16.046,-6.609 -33.269,-9.91 -51.668,-9.91 -18.402,0 -35.628,3.301 -51.668,9.91 -16.046,6.594 -29.964,15.625 -41.757,27.075 -11.801,11.437 -21.059,24.945 -27.785,40.511 -6.719,15.575 -10.083,32.328 -10.083,50.254"
         style="fill:#00adef;fill-opacity:1;fill-rule:nonzero;stroke:none"
         id="path3451"
         inkscape:connector-curvature="0" /><path
         d="m 709.59,868.121 c 10.851,0 20.348,-0.406 28.488,-1.234 8.145,-0.828 14.567,-1.711 19.293,-2.66 3.059,-0.473 6.067,-1.356 9.02,-2.645 2.949,-1.305 5.543,-3.187 7.789,-5.66 2.234,-2.488 4.066,-5.609 5.488,-9.387 1.414,-3.773 2.117,-8.265 2.117,-13.449 l 0,-211.266 -59.097,0 0,188.981 c -1.415,0.461 -3.602,0.765 -6.547,0.883 -2.95,0.117 -5.61,0.171 -7.965,0.171 -5.895,0 -11.149,-0.527 -15.75,-1.593 -4.598,-1.055 -8.727,-3.067 -12.383,-6.016 -3.66,-2.945 -6.898,-7.199 -9.727,-12.738 -2.836,-5.543 -5.312,-12.793 -7.437,-21.758 -4.719,-19.824 -8.555,-36.277 -11.496,-49.371 -2.957,-13.098 -5.133,-22.707 -6.551,-28.84 -2.125,-9.437 -5.016,-20.176 -8.672,-32.207 -3.66,-12.031 -9.262,-24.535 -16.808,-37.512 l -67.239,0 c 10.375,17.215 17.746,32.024 22.117,44.41 4.364,12.383 7.84,23.176 10.438,32.379 1.418,5.184 2.711,10.317 3.898,15.399 1.176,5.066 2.473,10.793 3.887,17.164 1.414,6.367 3.067,13.621 4.957,21.769 1.891,8.133 4.125,17.743 6.727,28.836 3.769,16.508 8.668,30.262 14.679,41.227 6.024,10.976 13.329,19.82 21.942,26.547 8.617,6.711 18.586,11.488 29.906,14.332 11.324,2.832 24.297,4.238 38.926,4.238"
         style="fill:#00adef;fill-opacity:1;fill-rule:nonzero;stroke:none"
         id="path3453"
         inkscape:connector-curvature="0" /><path
         d="m 898.352,677.73 78.562,0 0,134.836 c -1.414,0.473 -3.363,0.762 -5.836,0.879 -2.48,0.121 -4.902,0.188 -7.258,0.188 -6.136,0 -11.445,-0.594 -15.922,-1.778 -4.488,-1.183 -8.445,-3.421 -11.859,-6.726 -3.422,-3.305 -6.43,-7.781 -9.023,-13.438 -2.598,-5.675 -4.953,-12.976 -7.078,-21.941 l -21.586,-92.02 z m 165.968,-119.972 -59.09,0 0,64.062 -136.609,0 0,-64.062 -59.098,0 0,92.726 c 0,8.731 2.485,15.454 7.43,20.168 4.957,4.723 11.559,7.078 19.824,7.078 2.594,10.848 4.891,20.403 6.899,28.668 2,8.254 3.894,16.215 5.664,23.891 1.769,7.66 3.535,15.57 5.305,23.703 1.773,8.149 3.949,17.403 6.546,27.785 3.774,16.508 8.61,30.262 14.512,41.227 5.891,10.976 13.094,19.82 21.586,26.547 8.496,6.711 18.344,11.488 29.551,14.332 11.203,2.832 24,4.238 38.398,4.238 10.848,0 20.11,-0.406 27.782,-1.234 7.66,-0.828 13.85,-1.711 18.58,-2.66 3.06,-0.473 6.06,-1.356 9.02,-2.645 2.95,-1.305 5.54,-3.187 7.79,-5.66 2.23,-2.488 4.06,-5.609 5.48,-9.387 1.42,-3.773 2.12,-8.265 2.12,-13.449 l 0,-155.356 1.07,0 c 8.25,0 14.86,-2.355 19.81,-7.078 4.96,-4.714 7.43,-11.437 7.43,-20.168 l 0,-92.726"
         style="fill:#00adef;fill-opacity:1;fill-rule:nonzero;stroke:none"
         id="path3455"
         inkscape:connector-curvature="0" /><path
         d="m 1153.37,721.969 85.28,119.976 c 5.9,8.25 11.79,14.082 17.7,17.504 5.89,3.422 13.32,5.133 22.29,5.133 5.89,0 10.97,-0.473 15.22,-1.406 4.25,-0.949 8.61,-2.254 13.09,-3.899 l 0,-237.457 -58.39,0 0,146.508 c -4.25,-6.133 -9.32,-13.453 -15.22,-21.941 -5.9,-8.489 -12.09,-17.637 -18.58,-27.43 -6.49,-9.793 -13.09,-19.691 -19.81,-29.723 -6.73,-10.027 -13.04,-19.464 -18.94,-28.312 -5.89,-8.844 -11.09,-16.688 -15.57,-23.531 -4.48,-6.844 -7.78,-12.032 -9.91,-15.571 l -55.56,0 0,216.582 c 0,9.661 2.83,16.453 8.49,20.348 5.67,3.883 12.98,5.832 21.94,5.832 6.61,0 12.57,-0.828 17.88,-2.477 5.31,-1.64 8.67,-2.71 10.09,-3.183 l 0,-136.953"
         style="fill:#00adef;fill-opacity:1;fill-rule:nonzero;stroke:none"
         id="path3457"
         inkscape:connector-curvature="0" /><path
         d="m 1355.18,621.82 0,216.582 c 0,9.661 2.83,16.453 8.5,20.348 5.66,3.883 13.09,5.832 22.29,5.832 6.84,0 12.92,-0.828 18.23,-2.477 5.3,-1.64 8.67,-2.71 10.08,-3.183 l 0,-83.156 94.14,0 0,62.636 c 0,9.661 2.83,16.453 8.49,20.348 5.66,3.883 13.09,5.832 22.29,5.832 6.85,0 12.92,-0.828 18.23,-2.477 5.31,-1.64 8.67,-2.71 10.08,-3.183 l 0,-237.102 -59.09,0 0,98.032 -94.14,0 0,-98.032 -59.1,0"
         style="fill:#00adef;fill-opacity:1;fill-rule:nonzero;stroke:none"
         id="path3459"
         inkscape:connector-curvature="0" /><path
         d="m 1615.75,830.965 c 0,22.418 11.68,33.617 35.04,33.617 l 112.88,0 c 10.85,0 18.59,-2.289 23.19,-6.898 4.6,-4.59 6.89,-11.266 6.89,-19.993 0,-6.371 -0.94,-12.214 -2.83,-17.519 -1.89,-5.305 -3.42,-8.91 -4.6,-10.793 l -111.47,0 0,-187.559 -59.1,0 0,209.145"
         style="fill:#00adef;fill-opacity:1;fill-rule:nonzero;stroke:none"
         id="path3461"
         inkscape:connector-curvature="0" /><path
         d="m 907.031,338.148 c 1.645,0.942 5.719,3.543 12.207,7.793 6.489,4.25 13.801,9.25 21.942,15.039 8.14,5.782 16.281,11.68 24.422,17.692 8.136,6.016 14.683,11.269 19.636,15.742 7.789,6.848 14.098,12.926 18.932,18.231 4.83,5.304 8.67,10.32 11.51,15.046 2.83,4.711 4.77,9.2 5.83,13.45 1.06,4.238 1.6,8.714 1.6,13.441 0,8.961 -3.31,16.688 -9.91,23.176 -6.61,6.488 -16.634,9.738 -30.087,9.738 -6.843,0 -12.91,-0.945 -18.222,-2.828 -5.309,-1.895 -9.852,-4.316 -13.621,-7.266 -3.778,-2.949 -6.907,-6.132 -9.379,-9.554 -2.481,-3.422 -4.422,-6.66 -5.844,-9.727 -2.121,0.711 -4.774,1.949 -7.957,3.711 -3.184,1.777 -6.258,3.949 -9.207,6.555 -2.949,2.593 -5.539,5.593 -7.785,9.015 -2.246,3.422 -3.356,7.371 -3.356,11.86 0,4.254 0.703,8.203 2.117,11.859 1.414,3.66 3.067,6.777 4.957,9.371 1.176,1.66 3.414,4.082 6.727,7.266 3.297,3.187 7.961,6.359 13.977,9.543 6.015,3.187 13.445,5.898 22.296,8.148 8.844,2.239 19.52,3.356 32.024,3.356 15.1,0 28.43,-2 39.99,-6.016 11.56,-4.016 21.29,-9.555 29.2,-16.625 7.89,-7.078 13.92,-15.344 18.04,-24.781 4.13,-9.438 6.19,-19.586 6.19,-30.434 0,-15.332 -2.88,-28.664 -8.66,-39.984 -5.79,-11.32 -11.86,-20.77 -18.23,-28.313 -3.77,-4.488 -8.31,-9.265 -13.62,-14.332 -5.31,-5.082 -10.62,-9.91 -15.93,-14.511 -5.31,-4.598 -10.26,-8.739 -14.86,-12.379 -4.6,-3.66 -7.96,-6.321 -10.09,-7.961 l 83.17,0 0,-53.797 -178.009,0 0,48.476"
         style="fill:#00adef;fill-opacity:1;fill-rule:nonzero;stroke:none"
         id="path3463"
         inkscape:connector-curvature="0" /><path
         d="m 1222.17,337.809 c 13.91,0 24.77,5.953 32.55,17.863 7.79,11.906 11.68,30.375 11.68,55.383 0,25.008 -3.89,43.527 -11.68,55.554 -7.78,12.043 -18.64,18.059 -32.55,18.059 -14.16,0 -25.13,-6.016 -32.92,-18.059 -7.78,-12.027 -11.68,-30.546 -11.68,-55.554 0,-25.008 3.9,-43.477 11.68,-55.383 7.79,-11.91 18.76,-17.863 32.92,-17.863 z m 0,-54.149 c -16.76,0 -31.56,2.942 -44.42,8.84 -12.86,5.898 -23.71,14.34 -32.56,25.301 -8.84,10.98 -15.51,24.301 -19.99,40 -4.48,15.687 -6.73,33.441 -6.73,53.254 0,19.82 2.25,37.562 6.73,53.265 4.48,15.676 11.15,29.075 19.99,40.157 8.85,11.097 19.7,19.586 32.56,25.484 12.86,5.894 27.66,8.844 44.42,8.844 16.51,0 31.26,-2.95 44.23,-8.844 12.98,-5.898 23.83,-14.387 32.56,-25.484 8.73,-11.082 15.39,-24.481 19.99,-40.157 4.6,-15.703 6.91,-33.445 6.91,-53.265 0,-19.813 -2.31,-37.567 -6.91,-53.254 -4.6,-15.699 -11.26,-29.02 -19.99,-40 -8.73,-10.961 -19.58,-19.403 -32.56,-25.301 -12.97,-5.898 -27.72,-8.84 -44.23,-8.84"
         style="fill:#00adef;fill-opacity:1;fill-rule:nonzero;stroke:none"
         id="path3465"
         inkscape:connector-curvature="0" /><path
         d="m 1416.13,463.426 -42.82,-33.262 c -1.89,0.934 -4.19,2.305 -6.9,4.066 -2.72,1.778 -5.43,4.016 -8.14,6.727 -2.71,2.711 -5.01,5.715 -6.9,9.027 -1.89,3.305 -2.83,6.954 -2.83,10.965 0,8.492 2.24,15.164 6.72,19.996 4.48,4.828 10.85,10.317 19.11,16.465 l 20.88,15.57 c 4.48,3.29 8.61,6.188 12.39,8.661 3.77,2.476 7.54,4.488 11.32,6.015 3.77,1.539 7.61,2.711 11.5,3.539 3.89,0.832 8.2,1.239 12.92,1.239 3.54,0 7.08,-0.289 10.62,-0.879 3.54,-0.594 6.66,-1.305 9.38,-2.121 2.71,-0.829 4.95,-1.594 6.72,-2.301 1.77,-0.711 2.88,-1.188 3.36,-1.426 l 0,-236.035 -57.33,0 0,173.754"
         style="fill:#00adef;fill-opacity:1;fill-rule:nonzero;stroke:none"
         id="path3467"
         inkscape:connector-curvature="0" /><path
         d="m 1515.25,338.148 c 1.65,0.942 5.72,3.543 12.21,7.793 6.49,4.25 13.8,9.25 21.94,15.039 8.15,5.782 16.29,11.68 24.43,17.692 8.13,6.016 14.68,11.269 19.63,15.742 7.79,6.848 14.1,12.926 18.94,18.231 4.83,5.304 8.67,10.32 11.5,15.046 2.83,4.711 4.77,9.2 5.84,13.45 1.06,4.238 1.59,8.714 1.59,13.441 0,8.961 -3.31,16.688 -9.91,23.176 -6.61,6.488 -16.63,9.738 -30.08,9.738 -6.85,0 -12.91,-0.945 -18.22,-2.828 -5.31,-1.895 -9.86,-4.316 -13.63,-7.266 -3.77,-2.949 -6.9,-6.132 -9.38,-9.554 -2.48,-3.422 -4.42,-6.66 -5.84,-9.727 -2.12,0.711 -4.77,1.949 -7.96,3.711 -3.18,1.777 -6.25,3.949 -9.2,6.555 -2.95,2.593 -5.54,5.593 -7.79,9.015 -2.24,3.422 -3.35,7.371 -3.35,11.86 0,4.254 0.7,8.203 2.12,11.859 1.41,3.66 3.06,6.777 4.95,9.371 1.18,1.66 3.42,4.082 6.73,7.266 3.29,3.187 7.96,6.359 13.97,9.543 6.02,3.187 13.45,5.898 22.3,8.148 8.85,2.239 19.52,3.356 32.03,3.356 15.09,0 28.42,-2 39.98,-6.016 11.56,-4.016 21.29,-9.555 29.2,-16.625 7.9,-7.078 13.92,-15.344 18.05,-24.781 4.12,-9.438 6.19,-19.586 6.19,-30.434 0,-15.332 -2.89,-28.664 -8.67,-39.984 -5.78,-11.32 -11.86,-20.77 -18.23,-28.313 -3.77,-4.488 -8.31,-9.265 -13.62,-14.332 -5.3,-5.082 -10.62,-9.91 -15.93,-14.511 -5.3,-4.598 -10.26,-8.739 -14.86,-12.379 -4.6,-3.66 -7.96,-6.321 -10.09,-7.961 l 83.17,0 0,-53.797 -178.01,0 0,48.476"
         style="fill:#00adef;fill-opacity:1;fill-rule:nonzero;stroke:none"
         id="path3469"
         inkscape:connector-curvature="0" /><path
         d="m 0,458.719 0,-312.77 c 96.3828,84.153 268.266,121.242 467.863,121.242 399.535,0 700.627,-243.7222 1078.097,-260.76912 l 0,17.43752 C 1296.14,34.9297 1083.14,148.109 868.496,245.039 637.41,349.32 375.234,451.789 0,458.719"
         style="fill:#00adef;fill-opacity:1;fill-rule:nonzero;stroke:none"
         id="path3471"
         inkscape:connector-curvature="0" /><path
         d="M 467.094,197.41 C 187.512,197.41 27.8164,124.762 2.76172,5.5 L 1192.29,5.5 C 1041.89,53.9688 898.027,117.16 744.258,158.09 654.77,181.898 563.641,197.41 467.094,197.41"
         style="fill:#fbc707;fill-opacity:1;fill-rule:nonzero;stroke:none"
         id="path3473"
         inkscape:connector-curvature="0" /></g></g></svg>