<?xml version="1.0" encoding="UTF-8" standalone="no"?>
<!-- Created with Inkscape (http://www.inkscape.org/) -->

<svg
   xmlns:dc="http://purl.org/dc/elements/1.1/"
   xmlns:cc="http://creativecommons.org/ns#"
   xmlns:rdf="http://www.w3.org/1999/02/22-rdf-syntax-ns#"
   xmlns:svg="http://www.w3.org/2000/svg"
   xmlns="http://www.w3.org/2000/svg"
   xmlns:sodipodi="http://sodipodi.sourceforge.net/DTD/sodipodi-0.dtd"
   xmlns:inkscape="http://www.inkscape.org/namespaces/inkscape"
   id="svg3355"
   version="1.1"
   inkscape:version="0.48.5 r10040"
   xml:space="preserve"
   width="940"
   height="172.7375"
   viewBox="0 0 940 172.7375"
   sodipodi:docname="AGROHOLDING_2012_logo.svg"
   inkscape:export-filename="/home/iraqez/WebstormProjects/agroholding_site/images/AGROHOLDING_2012_logo.svg.png"
   inkscape:export-xdpi="90"
   inkscape:export-ydpi="90"><metadata
     id="metadata3361"><rdf:RDF><cc:Work
         rdf:about=""><dc:format>image/svg+xml</dc:format><dc:type
           rdf:resource="http://purl.org/dc/dcmitype/StillImage" /><dc:title /></cc:Work></rdf:RDF></metadata><defs
     id="defs3359" /><sodipodi:namedview
     pagecolor="#ffffff"
     bordercolor="#666666"
     borderopacity="1"
     objecttolerance="10"
     gridtolerance="10"
     guidetolerance="10"
     inkscape:pageopacity="0"
     inkscape:pageshadow="2"
     inkscape:window-width="1920"
     inkscape:window-height="1025"
     id="namedview3357"
     showgrid="false"
     inkscape:zoom="1.525436"
     inkscape:cx="577.44061"
     inkscape:cy="136.74525"
     inkscape:window-x="-2"
     inkscape:window-y="-3"
     inkscape:window-maximized="1"
     inkscape:current-layer="g3363"
     showguides="true"
     inkscape:guide-bbox="true"
     units="pt"
     inkscape:document-units="pt"><sodipodi:guide
       orientation="0,1"
       position="340.70489,0"
       id="guide3193" /><sodipodi:guide
       orientation="0,1"
       position="-114.26361,173.13371"
       id="guide3210" /><sodipodi:guide
       orientation="1,0"
       position="158.64317,267.46452"
       id="guide4051" /><sodipodi:guide
       orientation="1,0"
       position="1363.5446,199.28729"
       id="guide4053" /></sodipodi:namedview><g
     id="g3363"
     inkscape:groupmode="layer"
     inkscape:label="ink_ext_XXXXXX"
     transform="matrix(1.25,0,0,-1.25,0,172.73726)"><rect
       style="fill:#fbc707;fill-opacity:1;stroke-width:0.55599999;stroke-miterlimit:4;stroke-dasharray:none"
       id="rect3267"
       width="1122.3021"
       height="83.910423"
       x="-1893.2292"
       y="-1274.7175"
       transform="matrix(0.80000001,0,0,-0.80000001,0,138.19)" /><path
       style="fill:#fbc707;fill-opacity:1;stroke-width:0.55599999;stroke-miterlimit:4;stroke-dasharray:none"
       d="m -1891.234,-1232.1598 0,-40.6441 559.8399,0 559.83997,0 0,40.6441 0,40.6441 -559.83997,0 -559.8399,0 0,-40.6441 z"
       id="path3269"
       inkscape:connector-curvature="0"
       transform="matrix(0.80000001,0,0,-0.80000001,0,138.19)" /><path
       style="fill:#fbc707;fill-opacity:1;stroke-width:0.55599999;stroke-miterlimit:4;stroke-dasharray:none"
       d="m -1891.234,-1232.1598 0,-40.6441 559.8399,0 559.83997,0 0,40.6441 0,40.6441 -559.83997,0 -559.8399,0 0,-40.6441 z"
       id="path3271"
       inkscape:connector-curvature="0"
       transform="matrix(0.80000001,0,0,-0.80000001,0,138.19)" /><path
       style="fill:#fbc707;fill-opacity:1;stroke-width:0.55599999;stroke-miterlimit:4;stroke-dasharray:none"
       d="m -1892.8074,-1232.1598 0,-40.6441 559.84,0 559.83995,0 0,40.6441 0,40.6441 -559.83995,0 -559.84,0 0,-40.6441 z"
       id="path4041"
       inkscape:connector-curvature="0"
       transform="matrix(0.80000001,0,0,-0.80000001,0,138.19)" /><path
       style="fill:#fbc707;fill-opacity:1;stroke-width:0.55599999;stroke-miterlimit:4;stroke-dasharray:none"
       d="m -1892.8074,-1232.1598 0,-40.6441 559.84,0 559.83995,0 0,40.6441 0,40.6441 -559.83995,0 -559.84,0 0,-40.6441 z"
       id="path4043"
       inkscape:connector-curvature="0"
       transform="matrix(0.80000001,0,0,-0.80000001,0,138.19)" /><path
       style="fill:#fbc707;fill-opacity:1;stroke:none"
       d="m -1892.8074,-1232.1598 0,-40.6441 559.84,0 559.83995,0 0,40.6441 0,40.6441 -559.83995,0 -559.84,0 0,-40.6441 z"
       id="path4045"
       inkscape:connector-curvature="0"
       transform="matrix(0.80000001,0,0,-0.80000001,0,138.19)" /><path
       style="fill:#fbc707;fill-opacity:1;stroke:none"
       d="m -1892.8074,-1232.1598 0,-40.6441 559.84,0 559.83995,0 0,40.6441 0,40.6441 -559.83995,0 -559.84,0 0,-40.6441 z"
       id="path4047"
       inkscape:connector-curvature="0"
       transform="matrix(0.80000001,0,0,-0.80000001,0,138.19)" /><g
       id="g3085"><g
         transform="matrix(0.60542077,0,0,0.60542077,67.311939,39.845376)"
         id="g3244"><path
           inkscape:connector-curvature="0"
           id="path3441"
           style="fill:#00adef;fill-opacity:1;fill-rule:nonzero;stroke:none"
           d="m 144.85652,70.382912 c -0.67073,1.805285 -1.44025,3.831972 -2.31082,6.077224 -0.87028,2.242413 -1.70735,4.419541 -2.51122,6.528545 -0.80272,2.109004 -1.55578,4.050536 -2.25972,5.827435 -0.7031,1.774062 -1.25519,3.096801 -1.65655,3.965382 -0.4025,-0.936704 -0.9404,-2.259444 -1.60659,-3.965382 -0.67102,-1.708775 -1.40704,-3.619084 -2.21091,-5.728088 -0.80499,-2.106165 -1.64122,-4.266262 -2.5115,-6.477452 -0.87142,-2.208351 -1.67414,-4.286131 -2.41045,-6.227664 l 17.47776,0 z M 98.448222,40.346781 c 1.407044,3.751075 3.114688,8.118671 5.122638,13.11017 2.01022,4.98724 4.1689,10.2782 6.47972,15.87004 2.31082,5.589002 4.72128,11.302898 7.23164,17.127495 2.51236,5.824598 4.97277,11.4505 7.38435,16.874874 1.26966,2.87823 2.82743,4.88789 4.67018,6.02613 1.84191,1.14107 4.26996,1.70877 7.28359,1.70877 1.13767,0 2.25973,-0.13625 3.36419,-0.40023 1.10559,-0.26965 2.09225,-0.58757 2.96481,-0.95657 0.86829,-0.36617 1.57025,-0.72098 2.109,-1.05308 0.53449,-0.33778 0.8683,-0.53932 1.00455,-0.60176 1.0034,-1.67756 2.32614,-4.31736 3.96736,-7.93644 1.64094,-3.61625 3.43061,-7.683817 5.373,-12.205544 1.94352,-4.521727 3.95033,-9.256341 6.02811,-14.215197 2.07495,-4.956017 4.00229,-9.659407 5.77635,-14.110172 1.77122,-4.453603 3.32955,-8.407914 4.66933,-11.856121 1.33977,-3.448207 2.27647,-5.909752 2.81295,-7.382365 l -18.48146,0 c -0.73858,1.942668 -1.54131,4.102481 -2.41187,6.478587 -0.87029,2.376107 -1.94267,5.174866 -3.21432,8.385774 l -29.23198,0 c -1.07239,-2.811816 -2.0247,-5.389739 -2.86178,-7.732635 -0.83849,-2.346019 -1.72552,-4.722409 -2.66109,-7.131726 l -17.379268,0" /><path
           inkscape:connector-curvature="0"
           id="path3443"
           style="fill:#00adef;fill-opacity:1;fill-rule:nonzero;stroke:none"
           d="m 182.03318,99.713109 c 0,6.363911 3.31537,9.543031 9.9461,9.543031 l 32.0438,0 c 3.07977,0 5.27393,-0.65002 6.57963,-1.95856 1.30571,-1.30288 1.95857,-3.19899 1.95857,-5.677 0,-1.805285 -0.26682,-3.465806 -0.8033,-4.97021 -0.53647,-1.507242 -0.97076,-2.53194 -1.30571,-3.062739 l -31.64357,0 0,-53.24085 -16.77552,0 0,59.366328" /><path
           inkscape:connector-curvature="0"
           id="path3445"
           style="fill:#00adef;fill-opacity:1;fill-rule:nonzero;stroke:none"
           d="m 256.46711,76.911457 c 0.46835,-0.06529 1.28867,-0.187341 2.46097,-0.349135 1.16946,-0.17031 3.09397,-0.255465 5.77635,-0.255465 3.07693,0 5.57481,0.286688 7.48228,0.854388 1.90747,0.567699 3.39768,1.32274 4.47063,2.262283 1.07011,0.936704 1.79109,1.989786 2.1601,3.164925 0.36616,1.169461 0.5535,2.321891 0.5535,3.462967 0,1.070113 -0.15328,2.177127 -0.45416,3.315365 -0.30088,1.138238 -0.95373,2.194159 -1.95856,3.164925 -1.00483,0.967928 -2.46098,1.771223 -4.36845,2.409885 -1.91031,0.635823 -4.47063,0.953735 -7.68665,0.953735 -2.3446,0 -4.25207,-0.04825 -5.72525,-0.150441 -1.47318,-0.09935 -2.37582,-0.18734 -2.71076,-0.249787 l 0,-18.583645 z m -16.3753,23.403413 c 0,1.47318 0.20154,2.74483 0.6046,3.81778 0.40023,1.07295 0.91968,1.95856 1.5555,2.66251 0.63866,0.70395 1.37383,1.23759 2.21119,1.60659 0.83736,0.36901 1.6889,0.61879 2.56316,0.7522 0.66705,0.13625 1.45331,0.26966 2.35879,0.40307 0.90265,0.13625 2.04088,0.24979 3.41472,0.35197 1.37099,0.10219 3.0457,0.18167 5.02414,0.24979 1.97275,0.0681 4.36845,0.10219 7.1814,0.10219 6.02613,0 11.05027,-0.68692 15.06674,-2.06075 4.01932,-1.37384 7.24953,-3.18196 9.69347,-5.42437 2.44395,-2.24525 4.18395,-4.819771 5.22284,-7.73207 1.03889,-2.915137 1.55833,-5.91259 1.55833,-8.99236 0,-3.550961 -0.57053,-6.798202 -1.70593,-9.744563 -1.14108,-2.943522 -2.91514,-5.472623 -5.32503,-7.581627 -2.41272,-2.109004 -5.50952,-3.755333 -9.2904,-4.921955 -3.78655,-1.175138 -8.28841,-1.75703 -13.51409,-1.75703 -1.20352,0 -2.37582,0.02839 -3.51406,0.09651 -1.14107,0.06812 -2.17712,0.133409 -3.11383,0.201533 -0.93954,0.06812 -1.7258,0.153279 -2.36163,0.252626 -0.63866,0.09935 -1.05308,0.153279 -1.25461,0.153279 l 0,-22.403411 -16.3753,0 0,59.968088" /><path
           inkscape:connector-curvature="0"
           id="path3447"
           style="fill:#00adef;fill-opacity:1;fill-rule:nonzero;stroke:none"
           d="m 340.89538,54.209153 c 2.87824,0 5.52372,0.516606 7.93644,1.555496 2.40989,1.03889 4.48483,2.497878 6.22766,4.374125 1.74,1.87057 3.09681,4.047698 4.06757,6.525706 0.97077,2.47517 1.45899,5.188774 1.45899,8.137973 0,2.946361 -0.48822,5.674157 -1.45899,8.186228 -0.97076,2.51207 -2.32757,4.686359 -4.06757,6.528544 -1.74283,1.842185 -3.81777,3.281304 -6.22766,4.320194 -2.41272,1.036052 -5.0582,1.558335 -7.93644,1.558335 -2.88107,0 -5.52655,-0.522283 -7.93644,-1.558335 -2.40988,-1.03889 -4.48482,-2.478009 -6.22766,-4.320194 -1.74284,-1.842185 -3.0968,-4.016474 -4.06757,-6.528544 -0.97077,-2.512071 -1.45615,-5.239867 -1.45615,-8.186228 0,-2.949199 0.48538,-5.662803 1.45615,-8.137973 0.97077,-2.478008 2.32473,-4.655136 4.06757,-6.525706 1.74284,-1.876247 3.81778,-3.335235 6.22766,-4.374125 2.40989,-1.03889 5.05537,-1.555496 7.93644,-1.555496 z m -37.26664,20.5933 c 0,5.086588 0.95374,9.84391 2.86121,14.263451 1.91031,4.419541 4.53876,8.251513 7.88819,11.501596 3.34658,3.24724 7.29777,5.80756 11.85072,7.68381 4.55295,1.87625 9.44369,2.81295 14.66652,2.81295 5.22284,0 10.11357,-0.9367 14.66652,-2.81295 4.55295,-1.87625 8.50414,-4.43657 11.85357,-7.68381 3.34658,-3.250083 5.97787,-7.082055 7.88534,-11.501596 1.90747,-4.419541 2.86121,-9.176863 2.86121,-14.263451 0,-5.089426 -0.95374,-9.846748 -2.86121,-14.266289 -1.90747,-4.419541 -4.53876,-8.252081 -7.88534,-11.498754 -3.34943,-3.250932 -7.30062,-5.813244 -11.85357,-7.686084 -4.55295,-1.874828 -9.44368,-2.812952 -14.66652,-2.812952 -5.22283,0 -10.11357,0.938124 -14.66652,2.812952 -4.55295,1.87284 -8.50414,4.435152 -11.85072,7.686084 -3.34943,3.246673 -5.97788,7.079213 -7.88819,11.498754 -1.90747,4.419541 -2.86121,9.176863 -2.86121,14.266289" /><path
           inkscape:connector-curvature="0"
           id="path3449"
           style="fill:#00adef;fill-opacity:1;fill-rule:nonzero;stroke:none"
           d="m 378.7099,40.346781 c 0.60208,0.802727 1.74193,2.292939 3.41509,4.468647 1.67426,2.177412 3.68227,4.78883 6.02627,7.837944 2.34397,3.044573 4.93964,6.392013 7.78588,10.042321 2.84506,3.650024 5.67476,7.31566 8.48884,10.999179 -1.94266,2.346018 -3.83537,4.606881 -5.67586,6.781171 -1.84278,2.177695 -3.53367,4.169185 -5.07268,5.977592 -1.54121,1.808407 -2.88062,3.380651 -4.01823,4.722408 -1.13986,1.337217 -2.00804,2.342896 -2.61233,3.011363 -1.3405,1.539033 -2.3606,2.962824 -3.06245,4.269952 -0.7052,1.307128 -1.05558,2.563452 -1.05558,3.766682 0,2.21091 0.75399,3.93388 2.25973,5.17345 1.50795,1.2373 3.46606,1.85723 5.87657,1.85723 1.7419,0 3.16447,-0.1828 4.26881,-0.55322 1.10548,-0.36589 1.92377,-0.71758 2.46263,-1.05337 0.46682,-0.60091 1.23852,-1.57224 2.30863,-2.914 1.0721,-1.33722 2.34375,-2.92933 3.81863,-4.770949 1.4712,-1.841901 3.11327,-3.91514 4.92196,-6.228232 1.80841,-2.30855 3.71531,-4.703391 5.72553,-7.180547 1.53904,2.073522 2.99604,4.034924 4.36873,5.876825 1.37157,1.841617 2.61227,3.497029 3.71787,4.972764 1.10417,1.472613 2.02441,2.712189 2.76072,3.713319 0.73631,1.00568 1.23872,1.67443 1.5081,2.01023 0.93698,1.20636 1.77292,2.19331 2.51008,2.96282 0.7363,0.76952 1.50809,1.38916 2.31082,1.86035 0.80386,0.46694 1.65768,0.80273 2.56146,1.00455 0.90349,0.19869 1.95913,0.29946 3.16436,0.29946 1.33948,0 2.59467,-0.1828 3.76754,-0.55322 1.17088,-0.36589 2.22538,-0.784 3.16464,-1.25519 0.93585,-0.46693 1.72183,-0.97133 2.35936,-1.50582 0.63667,-0.53761 1.08884,-0.93784 1.35623,-1.20636 -0.53562,-0.66847 -1.57338,-1.958 -3.11355,-3.86632 -1.5413,-1.909174 -3.38178,-4.218859 -5.524,-6.931044 -2.14448,-2.7119 -4.50611,-5.723546 -7.08177,-9.040899 -2.58019,-3.31423 -5.20921,-6.713898 -7.88676,-10.196451 3.08005,-3.814373 6.12803,-7.584182 9.14195,-11.297505 3.01363,-3.717864 5.77549,-7.132861 8.28699,-10.248396 2.5115,-3.111277 4.67132,-5.794793 6.47972,-8.035503 1.80614,-2.245252 3.04486,-3.834243 3.7156,-4.771231 l -20.39177,0 c -0.60091,0.66875 -1.47346,1.740851 -2.61113,3.213464 -1.13995,1.471193 -2.46041,3.163221 -3.96851,5.072679 -1.50667,1.909173 -3.16322,4.00143 -4.97163,6.281311 -1.8084,2.273921 -3.71559,4.616817 -5.72581,7.030675 -1.87597,-2.413858 -3.66678,-4.741142 -5.37442,-6.982988 -1.70735,-2.245535 -3.28187,-4.318774 -4.72099,-6.228232 -1.44053,-1.909173 -2.6977,-3.601202 -3.76782,-5.073814 -1.06983,-1.471194 -1.90718,-2.577924 -2.51028,-3.313095 l -19.38717,0" /><path
           inkscape:connector-curvature="0"
           id="path3451"
           style="fill:#00adef;fill-opacity:1;fill-rule:nonzero;stroke:none"
           d="m 488.77365,54.207733 c 2.87852,0 5.52286,0.518878 7.93558,1.558052 2.41188,1.03889 4.48511,2.495891 6.22824,4.370718 1.74085,1.871706 3.0968,4.049401 4.06813,6.526274 0.96906,2.478293 1.457,5.190193 1.457,8.137406 0,2.948347 -0.48794,5.67586 -1.457,8.186227 -0.97133,2.514625 -2.32728,4.689198 -4.06813,6.530815 -1.74313,1.841618 -3.81636,3.279885 -6.22824,4.318775 -2.41272,1.03889 -5.05706,1.557767 -7.93558,1.557767 -2.88051,0 -5.52599,-0.518877 -7.93559,-1.557767 -2.41159,-1.03889 -4.4871,-2.477157 -6.22795,-4.318775 -1.74312,-1.841617 -3.09907,-4.01619 -4.06813,-6.530815 -0.97247,-2.510367 -1.45814,-5.23788 -1.45814,-8.186227 0,-2.947213 0.48567,-5.659113 1.45814,-8.137406 0.96906,-2.476873 2.32501,-4.654568 4.06813,-6.526274 1.74085,-1.874827 3.81636,-3.331828 6.22795,-4.370718 2.4096,-1.039174 5.05508,-1.558052 7.93559,-1.558052 z m -37.26749,20.59245 c 0,5.089426 0.95487,9.845045 2.86206,14.264586 1.90917,4.419541 4.53705,8.253783 7.88676,11.503581 3.34744,3.24667 7.29806,5.80586 11.85272,7.68069 4.55295,1.87596 9.44254,2.81409 14.66595,2.81409 5.22255,0 10.11129,-0.93813 14.66595,-2.81409 4.55266,-1.87483 8.50328,-4.43402 11.85299,-7.68069 3.34745,-3.249798 5.9776,-7.08404 7.88478,-11.503581 1.90918,-4.419541 2.86376,-9.17516 2.86376,-14.264586 0,-5.088291 -0.95458,-9.843627 -2.86376,-14.264587 -1.90718,-4.418405 -4.53733,-8.252648 -7.88478,-11.499038 -3.34971,-3.25008 -7.30033,-5.813527 -11.85299,-7.685232 -4.55466,-1.875963 -9.4434,-2.812952 -14.66595,-2.812952 -5.22341,0 -10.113,0.936989 -14.66595,2.812952 -4.55466,1.871705 -8.50528,4.435152 -11.85272,7.685232 -3.34971,3.24639 -5.97759,7.080633 -7.88676,11.499038 -1.90719,4.42096 -2.86206,9.176296 -2.86206,14.264587" /><path
           inkscape:connector-curvature="0"
           id="path3453"
           style="fill:#00adef;fill-opacity:1;fill-rule:nonzero;stroke:none"
           d="m 571.32198,110.25926 c 3.08006,0 5.77578,-0.11524 8.08632,-0.35027 2.31195,-0.23502 4.13484,-0.48566 5.47631,-0.75504 0.8683,-0.13426 1.72212,-0.3849 2.56033,-0.75078 0.83707,-0.37042 1.57337,-0.90463 2.2109,-1.60659 0.63412,-0.70622 1.15413,-1.59211 1.55777,-2.6645 0.40136,-1.07096 0.60091,-2.34602 0.60091,-3.81749 l 0,-59.967809 -16.77467,0 0,53.642214 c -0.40165,0.130854 -1.02243,0.217145 -1.85837,0.250639 -0.83735,0.03321 -1.59239,0.04854 -2.26086,0.04854 -1.67329,0 -3.16464,-0.149588 -4.47063,-0.452172 -1.30514,-0.299462 -2.47716,-0.870568 -3.51491,-1.707641 -1.03889,-0.835937 -1.958,-2.043434 -2.76101,-3.615678 -0.805,-1.573379 -1.50781,-3.63129 -2.11099,-6.176003 -1.33949,-5.627038 -2.42834,-10.297218 -3.26314,-14.013947 -0.83934,-3.717864 -1.457,-6.445377 -1.8595,-8.186228 -0.60318,-2.67869 -1.42379,-5.726953 -2.46154,-9.141949 -1.03889,-3.414997 -2.62902,-6.964254 -4.77095,-10.647773 l -19.08578,0 c 2.94495,4.886474 5.0372,9.090005 6.27791,12.605769 1.23872,3.514911 2.22538,6.578502 2.96282,9.190771 0.4025,1.471478 0.76952,2.928478 1.10645,4.371003 0.33381,1.437983 0.70196,3.06359 1.10332,4.871997 0.40137,1.807272 0.87057,3.866318 1.40705,6.179126 0.53676,2.30855 1.17088,5.036346 1.90945,8.185092 1.06983,4.685792 2.46041,8.589862 4.16664,11.702274 1.70991,3.115535 3.78343,5.625905 6.22823,7.535355 2.44593,1.90492 5.27563,3.26087 8.48881,4.06814 3.21431,0.80386 6.8967,1.20295 11.04913,1.20295" /><path
           inkscape:connector-curvature="0"
           id="path3455"
           style="fill:#00adef;fill-opacity:1;fill-rule:nonzero;stroke:none"
           d="m 624.90203,56.216822 22.29981,0 0,38.273168 c -0.40136,0.13426 -0.95459,0.216293 -1.65655,0.249503 -0.70394,0.03435 -1.39143,0.05336 -2.06018,0.05336 -1.7417,0 -3.24866,-0.168607 -4.51945,-0.504685 -1.27392,-0.335794 -2.39712,-0.97105 -3.36618,-1.909173 -0.97133,-0.938124 -1.82515,-2.208635 -2.56118,-3.814373 -0.73744,-1.610848 -1.4059,-3.683235 -2.00908,-6.227948 l -6.12719,-26.119856 z m 47.10998,-34.054025 -16.77268,0 0,18.183984 -38.77643,0 0,-18.183984 -16.77496,0 0,26.320254 c 0,2.478292 0.70537,4.386614 2.10901,5.724682 1.40704,1.340623 3.28102,2.009089 5.62704,2.009089 0.7363,3.079202 1.3883,5.791387 1.95827,8.137405 0.5677,2.342896 1.10532,4.602624 1.60773,6.781455 0.50213,2.174289 1.00341,4.419541 1.50582,6.728091 0.50327,2.313092 1.12093,4.939838 1.85808,7.886766 1.07125,4.685792 2.44395,8.589862 4.11923,11.702274 1.67216,3.115537 3.71673,5.625907 6.12718,7.535357 2.41159,1.90492 5.20694,3.26087 8.38805,4.06814 3.17997,0.80386 6.81239,1.20295 10.89926,1.20295 3.0792,0 5.70822,-0.11524 7.88591,-0.35027 2.17429,-0.23502 3.93132,-0.48566 5.27393,-0.75504 0.86858,-0.13426 1.72013,-0.3849 2.56033,-0.75078 0.83736,-0.37042 1.57253,-0.90463 2.21119,-1.60659 0.63298,-0.70622 1.15243,-1.59211 1.5555,-2.6645 0.40306,-1.07096 0.60176,-2.34602 0.60176,-3.81749 l 0,-44.097768 0.30372,0 c 2.34176,0 4.218,-0.668466 5.62306,-2.009089 1.40789,-1.338068 2.109,-3.24639 2.109,-5.724682 l 0,-26.320254" /><path
           inkscape:connector-curvature="0"
           id="path3457"
           style="fill:#00adef;fill-opacity:1;fill-rule:nonzero;stroke:none"
           d="m 697.28884,68.774052 24.2067,34.055158 c 1.67472,2.34176 3.34659,3.99717 5.02414,4.96851 1.67188,0.97133 3.78088,1.457 6.32702,1.457 1.67187,0 3.11383,-0.13426 4.32019,-0.39909 1.20636,-0.26938 2.44395,-0.6398 3.71559,-1.10673 l 0,-67.402119 -16.57398,0 0,41.586262 c -1.20637,-1.74085 -2.64548,-3.818631 -4.3202,-6.227947 -1.67471,-2.409601 -3.43174,-5.006259 -5.27393,-7.786 -1.84218,-2.77974 -3.71559,-5.589285 -5.62306,-8.436866 -1.91031,-2.846162 -3.7014,-5.524852 -5.37612,-8.036355 -1.67187,-2.510367 -3.14789,-4.736885 -4.41954,-6.679269 -1.27164,-1.942668 -2.20835,-3.41528 -2.81295,-4.419825 l -15.77069,0 0,61.476749 c 0,2.74227 0.80329,4.67018 2.40988,5.77578 1.60943,1.10219 3.68437,1.65541 6.22767,1.65541 1.87624,0 3.56799,-0.23503 5.07523,-0.7031 1.50724,-0.46551 2.46098,-0.76923 2.86405,-0.90349 l 0,-38.874078" /><path
           inkscape:connector-curvature="0"
           id="path3459"
           style="fill:#00adef;fill-opacity:1;fill-rule:nonzero;stroke:none"
           d="m 754.57256,40.346781 0,61.476749 c 0,2.74227 0.80329,4.67018 2.41272,5.77578 1.60659,1.10219 3.71559,1.65541 6.32701,1.65541 1.94153,0 3.66734,-0.23503 5.17458,-0.7031 1.50441,-0.46551 2.46098,-0.76923 2.86121,-0.90349 l 0,-23.603812 26.72162,0 0,17.779212 c 0,2.74227 0.80329,4.67018 2.40988,5.77578 1.60659,1.10219 3.71559,1.65541 6.32701,1.65541 1.94437,0 3.66734,-0.23503 5.17458,-0.7031 1.50725,-0.46551 2.46098,-0.76923 2.86121,-0.90349 l 0,-67.301349 -16.77268,0 0,27.826361 -26.72162,0 0,-27.826361 -16.77552,0" /><path
           inkscape:connector-curvature="0"
           id="path3461"
           style="fill:#00adef;fill-opacity:1;fill-rule:nonzero;stroke:none"
           d="m 828.53529,99.712541 c 0,6.363349 3.31537,9.542179 9.9461,9.542179 l 32.04096,0 c 3.07977,0 5.27677,-0.64973 6.58248,-1.958 1.30571,-1.30287 1.95572,-3.19785 1.95572,-5.675 0,-1.808412 -0.26682,-3.466946 -0.80329,-4.972769 -0.53648,-1.505823 -0.97077,-2.529102 -1.30571,-3.063591 l -31.64074,0 0,-53.238579 -16.77552,0 0,59.36576" /><path
           inkscape:connector-curvature="0"
           id="path3463"
           style="fill:#00adef;fill-opacity:1;fill-rule:nonzero;stroke:none"
           d="m 906.74991,54.106683 c 0.46693,0.267386 1.62334,1.005679 3.46496,2.212041 1.8419,1.206362 3.91741,2.62561 6.22823,4.268817 2.31053,1.641219 4.62136,3.315365 6.93218,5.02187 2.3094,1.70764 4.16776,3.198703 5.57367,4.468363 2.21091,1.943803 4.00171,3.669042 5.37384,5.174865 1.371,1.505539 2.46098,2.92933 3.26711,4.270804 0.8033,1.337216 1.35397,2.611418 1.65485,3.817779 0.30088,1.202955 0.45416,2.473467 0.45416,3.815225 0,2.543578 -0.93954,4.736885 -2.81295,6.578502 -1.87625,1.841617 -4.72156,2.764129 -8.54019,2.764129 -1.94238,0 -3.6645,-0.268238 -5.17231,-0.802727 -1.50696,-0.537895 -2.79649,-1.225096 -3.86632,-2.062452 -1.07238,-0.837073 -1.96055,-1.740567 -2.66223,-2.711901 -0.70423,-0.971334 -1.25518,-1.89044 -1.65881,-2.761007 -0.60205,0.201817 -1.3551,0.553223 -2.2586,1.053367 -0.90377,0.504401 -1.77633,1.120922 -2.6134,1.860635 -0.83707,0.736022 -1.57225,1.587572 -2.20977,2.558906 -0.63753,0.971334 -0.9526,2.092256 -0.9526,3.366458 0,1.207497 0.19954,2.32842 0.60091,3.366173 0.40136,1.03889 0.87057,1.92365 1.40704,2.65996 0.33381,0.47119 0.96906,1.15867 1.90946,2.06245 0.93585,0.90463 2.25973,1.805 3.96737,2.70878 1.70735,0.90463 3.81636,1.67414 6.32871,2.31281 2.51037,0.63554 5.54075,0.9526 9.09001,0.9526 4.28613,0 8.06985,-0.5677 11.35115,-1.70764 3.2813,-1.13994 6.04316,-2.71219 8.28841,-4.71901 2.23958,-2.00909 3.95121,-4.35539 5.12061,-7.034078 1.1723,-2.678974 1.7571,-5.559481 1.7571,-8.638684 0,-4.351984 -0.8175,-8.136269 -2.4582,-11.349449 -1.64346,-3.213179 -3.36642,-5.89556 -5.17455,-8.036638 -1.07011,-1.273918 -2.35879,-2.629868 -3.86603,-4.068135 -1.50724,-1.442525 -3.01449,-2.812951 -4.52173,-4.118944 -1.50724,-1.305142 -2.9123,-2.480563 -4.21801,-3.513777 -1.30571,-1.03889 -2.25944,-1.794214 -2.86404,-2.259728 l 23.60776,0 0,-15.270266 -50.52779,0 0,13.759902" /><path
           inkscape:connector-curvature="0"
           id="path3465"
           style="fill:#00adef;fill-opacity:1;fill-rule:nonzero;stroke:none"
           d="m 996.202,54.010458 c 3.9484,0 7.031,1.689757 9.2394,5.070408 2.2111,3.379515 3.3153,8.621937 3.3153,15.720452 0,7.098515 -1.1042,12.355129 -3.3153,15.76899 -2.2084,3.418403 -5.291,5.126043 -9.2394,5.126043 -4.0193,0 -7.1331,-1.70764 -9.3443,-5.126043 -2.2083,-3.413861 -3.3154,-8.670475 -3.3154,-15.76899 0,-7.098515 1.1071,-12.340937 3.3154,-15.720452 2.2112,-3.380651 5.325,-5.070408 9.3443,-5.070408 z m 0,-15.370182 c -4.7573,0 -8.9583,0.835087 -12.6086,2.509232 -3.6503,1.674146 -6.73,4.070406 -9.2421,7.181683 -2.5092,3.116671 -4.4025,6.897834 -5.6742,11.353991 -1.2716,4.452752 -1.9103,9.49222 -1.9103,15.116136 0,5.625902 0.6387,10.661965 1.9103,15.119258 1.2717,4.449629 3.165,8.252932 5.6742,11.398554 2.5121,3.14988 5.5918,5.55948 9.2421,7.23363 3.6503,1.67301 7.8513,2.51037 12.6086,2.51037 4.6864,0 8.8732,-0.83736 12.5547,-2.51037 3.6844,-1.67415 6.7642,-4.08375 9.2422,-7.23363 2.478,-3.145622 4.3684,-6.948925 5.6741,-11.398554 1.3057,-4.457293 1.9614,-9.493356 1.9614,-15.119258 0,-5.623916 -0.6557,-10.663384 -1.9614,-15.116136 -1.3057,-4.456157 -3.1961,-8.23732 -5.6741,-11.353991 -2.478,-3.111277 -5.5578,-5.507537 -9.2422,-7.181683 -3.6815,-1.674145 -7.8683,-2.509232 -12.5547,-2.509232" /><path
           inkscape:connector-curvature="0"
           id="path3467"
           style="fill:#00adef;fill-opacity:1;fill-rule:nonzero;stroke:none"
           d="m 1051.2575,89.666814 -12.1544,-9.441411 c -0.5365,0.265116 -1.1893,0.654274 -1.9586,1.154133 -0.772,0.504685 -1.5413,1.139941 -2.3105,1.909458 -0.7692,0.769516 -1.4221,1.622201 -1.9586,2.562312 -0.5364,0.938123 -0.8033,1.973891 -0.8033,3.112412 0,2.410453 0.6359,4.304298 1.9075,5.67586 1.2717,1.370427 3.0798,2.928478 5.4244,4.673587 l 5.9268,4.419545 c 1.2716,0.93386 2.4439,1.75646 3.5169,2.45842 1.0701,0.70281 2.1402,1.27392 3.2131,1.70735 1.0702,0.43685 2.1601,0.76952 3.2643,1.00455 1.1042,0.23616 2.3276,0.35169 3.6674,0.35169 1.0048,0 2.0096,-0.082 3.0144,-0.2495 1.0049,-0.16861 1.8905,-0.37043 2.6625,-0.60205 0.7693,-0.23531 1.4051,-0.45246 1.9075,-0.65314 0.5024,-0.20182 0.8175,-0.33721 0.9538,-0.40477 l 0,-66.998479 -16.2732,0 0,49.320033" /><path
           inkscape:connector-curvature="0"
           id="path3469"
           style="fill:#00adef;fill-opacity:1;fill-rule:nonzero;stroke:none"
           d="m 1079.3927,54.106683 c 0.4684,0.267386 1.6237,1.005679 3.4658,2.212041 1.8422,1.206362 3.9172,2.62561 6.2277,4.268817 2.3134,1.641219 4.6239,3.315365 6.9345,5.02187 2.3077,1.70764 4.1669,3.198703 5.5719,4.468363 2.2112,1.943803 4.0023,3.669042 5.3761,5.174865 1.371,1.505539 2.461,2.92933 3.2643,4.270804 0.8033,1.337216 1.354,2.611418 1.6577,3.817779 0.3009,1.202955 0.4513,2.473467 0.4513,3.815225 0,2.543578 -0.9395,4.736885 -2.8129,6.578502 -1.8763,1.841617 -4.7205,2.764129 -8.5382,2.764129 -1.9444,0 -3.6645,-0.268238 -5.1718,-0.802727 -1.5072,-0.537895 -2.7987,-1.225096 -3.8689,-2.062452 -1.0701,-0.837073 -1.9585,-1.740567 -2.6625,-2.711901 -0.7039,-0.971334 -1.2546,-1.89044 -1.6576,-2.761007 -0.6018,0.201817 -1.354,0.553223 -2.2595,1.053367 -0.9026,0.504401 -1.7741,1.120922 -2.6114,1.860635 -0.8374,0.736022 -1.5725,1.587572 -2.2112,2.558906 -0.6358,0.971334 -0.9509,2.092256 -0.9509,3.366458 0,1.207497 0.1987,2.32842 0.6018,3.366173 0.4002,1.03889 0.8685,1.92365 1.405,2.65996 0.335,0.47119 0.9708,1.15867 1.9103,2.06245 0.9339,0.90463 2.2595,1.805 3.9654,2.70878 1.7088,0.90463 3.8178,1.67414 6.3299,2.31281 2.512,0.63554 5.5407,0.9526 9.0917,0.9526 4.2833,0 8.067,-0.5677 11.3483,-1.70764 3.2813,-1.13994 6.0431,-2.71219 8.2884,-4.71901 2.2424,-2.00909 3.9512,-4.35539 5.1235,-7.034078 1.1694,-2.678974 1.757,-5.559481 1.757,-8.638684 0,-4.351984 -0.8203,-8.136269 -2.461,-11.349449 -1.6406,-3.213179 -3.3664,-5.89556 -5.1745,-8.036638 -1.0702,-1.273918 -2.3588,-2.629868 -3.8661,-4.068135 -1.5044,-1.442525 -3.0145,-2.812951 -4.5217,-4.118944 -1.5044,-1.305142 -2.9123,-2.480563 -4.218,-3.513777 -1.3057,-1.03889 -2.2595,-1.794214 -2.8641,-2.259728 l 23.6078,0 0,-15.270266 -50.5281,0 0,13.759902" /></g><path
         d="m 33.949,93.5785 0.002,-0.0019 0,0 c 0,0 0,0 -0.002,0.0019"
         style="fill:#fbc707;fill-opacity:1;fill-rule:nonzero;stroke:none"
         id="path3367"
         inkscape:connector-curvature="0" /><path
         d="m 30.429,93.5785 0.002,-0.0019 0,0 c 0,0 0,0 -0.002,0.0019"
         style="fill:#fbc707;fill-opacity:1;fill-rule:nonzero;stroke:none"
         id="path3369"
         inkscape:connector-curvature="0" /><path
         d="m 39.423,100.238 c -0.196,1.903 -1.321,15.264 3.778,26.705 -0.541,0.193 -1.088,0.38 -1.637,0.555 -5.217,-11.676 -3.024,-25.545 -2.692,-27.467 0.233,0.092 0.415,0.158 0.551,0.207"
         style="fill:#fbc707;fill-opacity:1;fill-rule:nonzero;stroke:none"
         id="path3371"
         inkscape:connector-curvature="0" /><path
         d="m 29.512,110.49 0.293,0.023 c 0.103,0.009 0.201,-0.014 0.289,-0.054 0.104,2.063 0.726,10.323 4.197,18.944 -0.578,0.123 -1.153,0.242 -1.724,0.349 -3.397,-8.579 -3.205,-16.957 -3.079,-19.26 0.009,-0.001 0.011,-0.003 0.024,-0.002"
         style="fill:#fbc707;fill-opacity:1;fill-rule:nonzero;stroke:none"
         id="path3373"
         inkscape:connector-curvature="0" /><path
         d="m 22.399,97.7938 c -0.414,2.6392 -2.069,16.1972 3.719,32.9872 -0.567,0.074 -1.118,0.141 -1.646,0.203 -5.913,-17.345 -3.109,-31.025 -2.615,-33.1367 0.166,-0.0086 0.351,-0.0289 0.542,-0.0535"
         style="fill:#fbc707;fill-opacity:1;fill-rule:nonzero;stroke:none"
         id="path3375"
         inkscape:connector-curvature="0" /><path
         d="m 58.553,110.488 c -0.331,-1.376 -0.413,-2.455 -0.37,-3.312 0.662,-0.733 1.239,-1.543 1.616,-2.39 0.139,-0.309 0.252,-0.609 0.364,-0.909 0.028,-0.005 0.048,-0.016 0.074,-0.019 0.04,-0.006 0.08,0.002 0.12,-0.001 0.207,0.243 0.395,0.487 0.635,0.734 l 0.004,0.001 c 0.693,0.707 1.525,1.228 2.394,1.62 0.412,0.802 0.774,1.77 1.052,2.929 0.504,2.131 0.338,5.101 -0.485,8.816 -0.433,-0.328 -1.159,-0.948 -1.961,-1.787 -1.365,-1.423 -2.911,-3.452 -3.443,-5.682"
         style="fill:#fbc707;fill-opacity:1;fill-rule:nonzero;stroke:none"
         id="path3377"
         inkscape:connector-curvature="0" /><path
         d="m 58.287,96.8313 c 0.217,0.0898 0.432,0.2046 0.63,0.3652 -0.821,1.3445 -0.805,3.5055 0.826,5.8635 -0.152,0.469 -0.326,0.95 -0.551,1.449 l -10e-4,0.004 c -1.283,2.876 -4.647,4.858 -5.737,5.442 -0.291,-1.346 -1.728,-4.964 0.031,-9.128 1.546,-0.817 3.546,-2.1567 4.802,-3.9957"
         style="fill:#fbc707;fill-opacity:1;fill-rule:nonzero;stroke:none"
         id="path3379"
         inkscape:connector-curvature="0" /><path
         d="m 65.814,99.4684 c 1.168,1.5796 2.175,3.9996 2.994,7.2086 -1.383,-0.025 -4.926,-0.499 -7.13,-2.74 -0.03,-0.031 -0.059,-0.066 -0.091,-0.096 -2.72,-2.841 -2.576,-5.7226 -1.474,-7.0269 0.07,-0.0848 0.123,-0.1309 0.182,-0.1832 1.567,1.6285 3.777,2.4472 5.519,2.8375"
         style="fill:#fbc707;fill-opacity:1;fill-rule:nonzero;stroke:none"
         id="path3381"
         inkscape:connector-curvature="0" /><path
         d="m 57.858,87.9477 c 0.247,0.1211 0.483,0.2765 0.698,0.4929 -1.002,1.2879 -1.226,3.5055 0.207,6.0879 -0.206,0.466 -0.436,0.9418 -0.718,1.432 l -0.003,0.0036 c -1.621,2.8519 -5.304,4.5519 -6.449,5.0219 -0.171,-1.4165 -0.473,-6.4719 1.105,-9.6102 1.611,-0.666 3.703,-1.7723 5.16,-3.4281"
         style="fill:#fbc707;fill-opacity:1;fill-rule:nonzero;stroke:none"
         id="path3383"
         inkscape:connector-curvature="0" /><path
         d="m 59.327,88.5359 c 0.289,-0.2847 0.61,-0.4644 0.958,-0.5617 1.334,1.4363 3.161,2.3363 4.666,2.877 0.874,1.2035 2.05,3.6113 2.763,8.2742 -1.326,-0.1504 -4.875,-0.7457 -6.977,-2.9414 -0.116,-0.1219 -0.226,-0.2445 -0.335,-0.3762 -2.475,-3.0855 -2.419,-5.9926 -1.075,-7.2719"
         style="fill:#fbc707;fill-opacity:1;fill-rule:nonzero;stroke:none"
         id="path3385"
         inkscape:connector-curvature="0" /><path
         d="m 58.358,79.9734 c -0.605,1.3125 -0.64,3.1586 0.241,5.2594 -0.295,0.4887 -0.623,0.986 -1.008,1.509 l -10e-4,0.0051 c -2.021,2.7851 -5.797,4.3273 -6.992,4.6734 -0.025,-1.2973 0.176,-5.9293 1.811,-9.0578 1.696,-0.3242 4.09,-1.0074 5.949,-2.3891"
         style="fill:#fbc707;fill-opacity:1;fill-rule:nonzero;stroke:none"
         id="path3387"
         inkscape:connector-curvature="0" /><path
         d="M 61.129,87.3574 C 60.844,87.057 60.576,86.7309 60.35,86.3797 58.155,82.9281 58.635,80.568 60.195,79.423 c 0.553,-0.4253 0.83,-0.9023 1.474,-0.7695 0.849,0.9363 1.879,1.6774 2.873,2.2504 0.267,0.3645 0.528,0.7656 0.783,1.2094 1.063,1.8621 1.703,4.7957 1.894,8.7105 -1.239,-0.2695 -4.099,-1.3871 -6.09,-3.4664"
         style="fill:#fbc707;fill-opacity:1;fill-rule:nonzero;stroke:none"
         id="path3389"
         inkscape:connector-curvature="0" /><path
         d="m 59.398,71.8875 c -0.124,1.3164 0.125,2.9008 0.901,4.6555 -0.441,0.5906 -0.955,1.1953 -1.56,1.8211 l -0.005,0.0043 c -2.441,2.6004 -6.772,3.45 -8.072,3.5816 0.186,-1.2773 1.209,-6.0043 3.474,-8.9703 1.487,-0.093 3.458,-0.3891 5.262,-1.0922"
         style="fill:#fbc707;fill-opacity:1;fill-rule:nonzero;stroke:none"
         id="path3391"
         inkscape:connector-curvature="0" /><path
         d="m 61.008,76.5332 c -0.943,-2.0078 -1.089,-3.7051 -0.774,-5.007 0.582,-0.2809 1.135,-0.6086 1.627,-0.9969 0.724,-0.5563 1.336,-1.1234 1.881,-1.6938 0.661,0.6016 1.362,1.127 2.05,1.5446 0.442,0.625 0.858,1.3804 1.225,2.2715 1.234,3.0129 0.916,7.4918 0.809,8.9609 0,0.0262 0,0.0262 0.001,0.0445 -0.361,-0.1218 -4.195,-1.9086 -5.52,-3.2929 -0.516,-0.5399 -0.969,-1.1465 -1.299,-1.8309"
         style="fill:#fbc707;fill-opacity:1;fill-rule:nonzero;stroke:none"
         id="path3393"
         inkscape:connector-curvature="0" /><path
         d="m 61.394,65.3902 c 0.344,1.0875 0.969,2.0125 1.702,2.8133 -0.536,0.534 -1.147,1.0707 -1.848,1.611 l -0.004,3e-4 c -2.912,2.3 -7.492,2.5543 -8.836,2.5243 0.454,-1.4719 2.696,-7.4528 6.171,-9.7598 0.827,-0.5707 1.62,-0.9852 2.364,-1.2555 -0.125,1.184 -0.013,2.5461 0.45,4.0629 l 10e-4,0.0035"
         style="fill:#fbc707;fill-opacity:1;fill-rule:nonzero;stroke:none"
         id="path3395"
         inkscape:connector-curvature="0" /><path
         d="m 68.779,62.1977 c 0.77,3.1925 0.069,7.3886 -0.155,8.7699 -0.009,0.0312 -0.009,0.0535 -0.016,0.0847 -0.999,-0.4023 -3.049,-1.6386 -4.701,-3.3648 -0.729,-0.7605 -1.337,-1.6523 -1.662,-2.6832 -1.263,-4.1422 -0.105,-6.866 1.831,-7.5211 0.712,-0.2543 1.387,-0.2129 2.005,0.1207 0.28,0.15 0.549,0.359 0.805,0.6211 0.785,0.8223 1.428,2.1676 1.893,3.9727"
         style="fill:#fbc707;fill-opacity:1;fill-rule:nonzero;stroke:none"
         id="path3397"
         inkscape:connector-curvature="0" /><path
         d="m 68.806,107.613 0.218,0.003 c 0.26,0.944 3.771,12.998 11.871,21.397 -0.406,0.309 -0.818,0.616 -1.235,0.921 -8.255,-8.59 -10.968,-21.44 -11.153,-22.335 0.136,0.007 0.248,0.012 0.299,0.014"
         style="fill:#fbc707;fill-opacity:1;fill-rule:nonzero;stroke:none"
         id="path3399"
         inkscape:connector-curvature="0" /><path
         d="m 64.82,119.524 c 0.924,2.092 4.114,8.323 9.316,14.162 -0.441,0.283 -0.881,0.559 -1.315,0.829 -5.301,-6.031 -7.978,-12.808 -8.73,-14.91 -0.054,-0.158 -0.1,-0.289 -0.137,-0.392 l 0.608,-0.29 c 0.048,0.118 0.134,0.323 0.258,0.601"
         style="fill:#fbc707;fill-opacity:1;fill-rule:nonzero;stroke:none"
         id="path3401"
         inkscape:connector-curvature="0" /><path
         d="m 53.912,110.78 c 0.135,-0.071 0.309,-0.173 0.475,-0.27 0.236,1.273 2.849,13.85 13.487,26.959 -0.452,0.26 -0.878,0.5 -1.276,0.724 -11.008,-13.63 -12.703,-26.744 -12.78,-27.362 l 0.094,-0.051"
         style="fill:#fbc707;fill-opacity:1;fill-rule:nonzero;stroke:none"
         id="path3403"
         inkscape:connector-curvature="0" /><path
         d="m 33.902,85.4051 c 0.086,-0.0492 0.162,-0.0903 0.231,-0.1196 1.01,2.3016 3.063,3.9997 4.749,5.0754 0.609,2.0938 0.716,4.9946 0.319,8.6407 -1.449,-0.5571 -5.004,-2.4114 -6.452,-5.5891 -0.021,-0.0469 -0.04,-0.0875 -0.06,-0.1336 -1.752,-3.9973 -0.467,-6.9387 1.213,-7.8738"
         style="fill:#fbc707;fill-opacity:1;fill-rule:nonzero;stroke:none"
         id="path3405"
         inkscape:connector-curvature="0" /><path
         d="m 31.965,84.7184 c 0.218,0.1949 0.42,0.4222 0.579,0.7027 -1.21,1.1238 -1.888,3.2059 -1.23,5.9867 -0.406,0.5442 -0.867,1.0934 -1.419,1.643 l -0.002,0.0027 c -2.49,2.5012 -6.826,3.2727 -8.205,3.4594 0.223,-1.5121 0.129,-5.8242 3.63,-9.4785 1.956,-0.2571 4.598,-0.8856 6.647,-2.316"
         style="fill:#fbc707;fill-opacity:1;fill-rule:nonzero;stroke:none"
         id="path3407"
         inkscape:connector-curvature="0" /><path
         d="m 26.865,99.0285 c 0.192,-1.5609 0.53,-2.7133 0.912,-3.5847 0.99,-0.5098 1.921,-1.1305 2.654,-1.8672 0.269,-0.2707 0.506,-0.5383 0.745,-0.8075 0.026,0.0055 0.053,0.0016 0.08,0.0079 0.196,0.0418 0.377,0.1113 0.549,0.1957 0.095,0.2382 0.159,0.4664 0.272,0.7113 l 0,0.0035 c 0.377,0.8254 0.902,1.552 1.499,2.2016 0.207,1.098 0.236,2.4339 0.043,3.9976 -0.31,2.4113 -1.655,5.4353 -3.988,8.9843 -0.328,-0.508 -0.852,-1.43 -1.371,-2.612 -0.881,-2.005 -1.713,-4.711 -1.395,-7.2305"
         style="fill:#fbc707;fill-opacity:1;fill-rule:nonzero;stroke:none"
         id="path3409"
         inkscape:connector-curvature="0" /><path
         d="m 35.012,75.318 c 0.21,0.2164 0.398,0.4675 0.539,0.7691 -1.565,0.9567 -2.665,3.1871 -2.174,6.4203 -0.401,0.4074 -0.832,0.8145 -1.322,1.2156 l -0.002,8e-4 c -2.84,2.343 -7.403,2.6965 -8.795,2.7489 0.375,-1.5375 2.049,-6.9184 4.952,-9.5707 1.963,-0.0743 4.611,-0.42 6.802,-1.584"
         style="fill:#fbc707;fill-opacity:1;fill-rule:nonzero;stroke:none"
         id="path3411"
         inkscape:connector-curvature="0" /><path
         d="m 41.519,81.6957 c 0.346,1.6973 0.453,4.5281 -0.498,9.0324 -1.339,-0.6676 -4.857,-2.6488 -6.213,-5.7398 -0.074,-0.1684 -0.144,-0.3406 -0.204,-0.5188 -1.4,-4.1562 -0.193,-7.1586 1.731,-7.9742 0.342,-0.1547 0.681,-0.2289 1.014,-0.2359 0.802,2.3261 2.639,4.2004 4.17,5.4363"
         style="fill:#fbc707;fill-opacity:1;fill-rule:nonzero;stroke:none"
         id="path3413"
         inkscape:connector-curvature="0" /><path
         d="m 39.878,66.8871 c -1.706,0.7676 -3.023,2.8477 -3.033,5.9094 -0.5,0.3906 -1.033,0.7789 -1.638,1.1676 l -0.005,7e-4 c -3.229,2.1254 -7.826,2.2762 -9.226,2.177 0.543,-1.5215 3.038,-7.2941 6.6,-9.5719 2.016,0.234 4.585,0.2457 6.833,-0.5929 0.199,0.2589 0.359,0.5628 0.469,0.9101"
         style="fill:#fbc707;fill-opacity:1;fill-rule:nonzero;stroke:none"
         id="path3415"
         inkscape:connector-curvature="0" /><path
         d="m 43.757,82.3988 c -1.202,-0.7562 -3.779,-3.0152 -5.069,-5.9422 -0.182,-0.4226 -0.332,-0.8605 -0.436,-1.3183 -0.956,-4.425 0.479,-6.702 2.578,-7.2938 0.356,-0.1066 0.652,-0.2492 0.93,-0.3308 0.568,2.3804 2.119,4.4062 3.511,5.8117 0.201,2.2836 -0.303,5.3297 -1.514,9.0734"
         style="fill:#fbc707;fill-opacity:1;fill-rule:nonzero;stroke:none"
         id="path3417"
         inkscape:connector-curvature="0" /><path
         d="m 41.621,63.6988 c -0.577,0.3399 -1.188,0.6735 -1.875,0.9981 l -0.006,0.0019 c -3.605,1.7668 -8.517,0.9864 -9.941,0.6231 0.784,-1.3981 4.36,-6.875 8.476,-8.6598 2.034,0.4785 4.588,0.7859 6.892,0.3246 0.199,0.3113 0.326,0.6797 0.393,1.0852 -1.872,0.5187 -3.522,2.466 -3.939,5.6269"
         style="fill:#fbc707;fill-opacity:1;fill-rule:nonzero;stroke:none"
         id="path3419"
         inkscape:connector-curvature="0" /><path
         d="m 47.497,74.2781 c -0.009,0.0227 -0.009,0.0227 -0.017,0.0446 -0.334,-0.2668 -3.679,-3.5969 -4.533,-5.545 -0.334,-0.7597 -0.57,-1.5664 -0.652,-2.4047 -0.385,-4.6855 1.809,-7.1234 4.055,-7.4093 0.423,-0.0637 0.782,-0.1207 1.116,-0.0961 0.086,0.8265 0.3,1.6246 0.607,2.3777 0.006,0.0137 0.012,0.0328 0.02,0.0461 0.113,0.2758 0.237,0.5477 0.37,0.8121 0.012,0.027 0.026,0.0535 0.041,0.0789 0.139,0.268 0.285,0.5305 0.436,0.7836 0.005,0.007 0.009,0.0153 0.013,0.0227 0.381,0.6246 0.799,1.1976 1.22,1.7179 0.088,3.5981 -1.988,8.0899 -2.676,9.5715"
         style="fill:#fbc707;fill-opacity:1;fill-rule:nonzero;stroke:none"
         id="path3421"
         inkscape:connector-curvature="0" /><path
         d="m 52.539,48.5879 c 0.182,0.3812 0.277,0.8094 0.273,1.2781 -1.971,0.2383 -3.992,1.9934 -4.904,5.1426 -0.657,0.273 -1.35,0.5316 -2.119,0.7672 l -0.004,0.0012 c -3.984,1.2718 -8.921,-0.2219 -10.33,-0.7668 1.059,-1.3606 5.784,-6.72 10.365,-7.7872 0.042,-0.0113 0.08,-0.0179 0.123,-0.0273 1.928,0.7656 4.31,1.4356 6.596,1.3922"
         style="fill:#fbc707;fill-opacity:1;fill-rule:nonzero;stroke:none"
         id="path3423"
         inkscape:connector-curvature="0" /><path
         d="m 56.526,56.6301 c -0.017,0.2097 -0.019,0.407 -0.041,0.6254 -0.445,3.6199 -2.838,7.716 -3.622,9.0605 -0.022,0.0352 -0.031,0.0547 -0.049,0.0867 -0.895,-0.8035 -2.574,-2.8781 -3.64,-5.3047 -0.467,-1.0718 -0.76,-2.2332 -0.699,-3.432 0.296,-4.7898 2.595,-7.1805 4.896,-7.118 0.537,0.009 1.004,0.1426 1.413,0.375 -0.053,1.3668 0.264,2.7227 0.805,3.9579 0.273,0.6234 0.599,1.1992 0.937,1.7492"
         style="fill:#fbc707;fill-opacity:1;fill-rule:nonzero;stroke:none"
         id="path3425"
         inkscape:connector-curvature="0" /><path
         d="m 61.577,41.168 c 0.155,0.4519 0.195,0.9429 0.1,1.4574 -2.076,-0.0758 -4.442,1.3855 -5.873,4.4258 -0.72,0.1746 -1.479,0.3324 -2.317,0.4578 -4.282,0.616 -9.215,-1.8012 -10.584,-2.5899 1.368,-1.2144 7.219,-5.8261 12.103,-6.1449 0.183,-0.0179 0.352,-0.0207 0.528,-0.0304 1.777,1.0687 3.91,2.0679 6.043,2.4242"
         style="fill:#fbc707;fill-opacity:1;fill-rule:nonzero;stroke:none"
         id="path3427"
         inkscape:connector-curvature="0" /><path
         d="m 59.581,59.2938 c -0.021,0.03 -0.031,0.0476 -0.05,0.0769 -0.737,-0.7781 -1.991,-2.6848 -2.964,-4.8988 -0.642,-1.4684 -0.909,-3.1457 -0.553,-4.7395 l -0.099,0.0387 c 1.046,-4.7875 4.036,-6.3977 6.404,-5.9816 0.55,0.1066 0.931,0.1675 1.249,0.3523 -0.346,1.9687 0.114,4.0395 0.794,5.8074 -0.055,0.2531 -0.117,0.5094 -0.189,0.7754 -1.067,3.5926 -3.718,7.3356 -4.592,8.5692"
         style="fill:#fbc707;fill-opacity:1;fill-rule:nonzero;stroke:none"
         id="path3429"
         inkscape:connector-curvature="0" /><path
         d="m 52.184,35.423 c 1.582,-1.021 8.458,-4.8781 13.459,-4.389 2.896,0.2769 5.038,1.2711 6.035,2.8019 0.512,0.7832 0.659,1.6672 0.479,2.5282 -2.086,-0.5532 -4.715,0.6687 -6.714,3.5914 -0.852,0.0601 -1.752,0.0906 -2.729,0.0754 -4.535,-0.0922 -9.254,-3.5207 -10.53,-4.6079"
         style="fill:#fbc707;fill-opacity:1;fill-rule:nonzero;stroke:none"
         id="path3431"
         inkscape:connector-curvature="0" /><path
         d="m 72.41,37.5328 c 0.844,0.2731 1.441,0.7996 1.781,1.5637 10e-4,0.0039 0.003,0.0062 0.002,0.0113 0.63,1.4426 0.289,3.6422 -0.962,6.186 -1.18,2.3871 -3.413,4.8351 -6.37,7.8589 -0.396,-0.6004 -0.615,-1.4941 -1.205,-2.8386 -0.952,-2.1739 -1.494,-5.075 -0.52,-7.4789 l -0.132,0.2203 C 66.885,38.3641 70.041,36.7 72.41,37.5328"
         style="fill:#fbc707;fill-opacity:1;fill-rule:nonzero;stroke:none"
         id="path3433"
         inkscape:connector-curvature="0" /><path
         d="m 49.317,11.2191 c 7.305,1.7539 12.263,4.943 18.713,6.3098 16.43,3.4832 29.251,-3.1059 33.39,-5.5559 -8.336,12.2411 -23.729,21.611 -28.232,23.3981 l 0.231,1.2437 C 75.347,35.3699 104.997,20.4711 107.851,3.56797 L 106.592,0 c -0.132,0.782813 -0.308,1.56094 -0.523,2.33398 -0.178,0.63907 -1.279,2.86993 -2.833,4.36797 C 97.982,11.7648 84.229,14.5199 75.764,14.541 62.802,14.5738 59.076,10.2988 49.12,8.22188 41.506,6.63398 37.213,10.2629 37.213,10.2629 c 0,0 5.597,-0.60509 12.104,0.9562"
         style="fill:#fbc707;fill-opacity:1;fill-rule:nonzero;stroke:none"
         id="path3435"
         inkscape:connector-curvature="0" /><path
         d="m 80.551,21.523 c 5.229,-0.4371 9.774,-2.7289 9.56,-2.5589 -8.48,6.7179 -16.345,3.298 -24.761,5.2988 C 58.699,25.843 52.84,29.2871 44.003,36.3949 34.146,44.325 25.694,54.9453 19.602,56.7531 18.536,57.0695 13.636,55.5828 9.002,54.9516 4.368,54.3199 0,54.5434 0,54.5434 c 0.871,-0.1704 2.275,-2.6461 8.841,-2.695 5.71,-0.0421 6.402,1.5164 9.631,0.5075 5.863,-1.8325 15.995,-13.3024 22.415,-18.911 9.739,-8.509 15.61,-11.0961 24.125,-12.1949 4.835,-0.6238 9.93,0.743 15.539,0.273"
         style="fill:#fbc707;fill-opacity:1;fill-rule:nonzero;stroke:none"
         id="path3437"
         inkscape:connector-curvature="0" /><path
         d="m 78.695,72.8715 c 1.025,3.3957 3.676,8.2695 7.955,10.8367 -0.001,-8e-4 -3.966,-5.116 -5.972,-11.7109 -1.645,-5.4114 -1.53,-12.2368 -0.571,-19.1575 0.649,-4.6843 2.526,-9.4035 4.694,-13.7433 1.411,-2.8246 9.479,-15.2305 6.68,-12.7387 -1.817,1.6172 -3.38,3.0531 -3.38,3.0531 -1.283,1.2512 -17.779,15.7125 -9.406,43.4606"
         style="fill:#fbc707;fill-opacity:1;fill-rule:nonzero;stroke:none"
         id="path3439"
         inkscape:connector-curvature="0" /><rect
         transform="scale(1,-1)"
         y="-39.59639"
         x="126.46738"
         height="3.8811088"
         width="623.5434"
         id="rect4049"
         style="fill:#ffdd55;fill-opacity:1;stroke:none" /><g
         id="text4055"
         style="font-size:32px;font-style:italic;font-variant:normal;font-weight:normal;font-stretch:normal;text-align:start;line-height:125%;letter-spacing:0px;word-spacing:0px;writing-mode:lr-tb;text-anchor:start;fill:#333333;fill-opacity:1;stroke:none;font-family:Serif;-inkscape-font-specification:Serif Italic"
         transform="scale(1,-1)"><path
           id="path4060"
           style="fill:#333333"
           d="m 138.99548,-7.1287255 2.90625,-14.9375005 -2.75,0 0.3125,-1.671875 5.625,0 -0.5625,2.953125 c 0.74999,-1.124985 1.60416,-1.973942 2.5625,-2.546875 0.95833,-0.572899 1.99999,-0.859357 3.125,-0.859375 1.83332,1.8e-5 3.08332,0.526059 3.75,1.578125 0.39582,0.635432 0.59374,1.484389 0.59375,2.546875 -10e-6,0.697929 -0.0886,1.489595 -0.26562,2.375 l -1.73438,8.9062505 2.5625,0 -0.3125,1.65625 -5.45312,0 1.875,-9.6562505 c 0.20832,-1.072905 0.31248,-1.968738 0.3125,-2.6875 -2e-5,-0.635403 -0.0833,-1.135403 -0.25,-1.5 -0.35418,-0.749985 -1.16147,-1.124985 -2.42188,-1.125 -1.33334,1.5e-5 -2.44271,0.489598 -3.32812,1.46875 -0.88543,0.968763 -1.51043,2.385428 -1.875,4.25 l -1.79688,9.2500005 -2.875,0"
           inkscape:connector-curvature="0" /><path
           id="path4062"
           style="fill:#333333"
           d="m 165.58923,-8.2224755 c 1.54166,1.1e-6 2.82291,-0.6093733 3.84375,-1.8281255 1.03124,-1.218745 1.77603,-3.015619 2.23438,-5.390625 0.20832,-1.083323 0.31248,-2.046864 0.3125,-2.890625 -2e-5,-0.999987 -0.14585,-1.828111 -0.4375,-2.484375 -0.5521,-1.218735 -1.59897,-1.828109 -3.14063,-1.828125 -1.54167,1.6e-5 -2.82813,0.60939 -3.85937,1.828125 -1.02084,1.208346 -1.76042,3.000011 -2.21875,5.375 -0.20834,1.083341 -0.31251,2.041673 -0.3125,2.875 -1e-5,1.010422 0.15104,1.848962 0.45312,2.515625 0.55208,1.2187522 1.59375,1.8281266 3.125,1.8281255 m -0.29687,1.546875 c -2.41667,-5e-7 -4.20313,-0.7968747 -5.35938,-2.390625 -0.80208,-1.1145805 -1.20312,-2.4739535 -1.20312,-4.0781255 0,-0.718743 0.0781,-1.484367 0.23437,-2.296875 0.51042,-2.645822 1.65104,-4.765611 3.42188,-6.359375 1.78124,-1.593733 3.88541,-2.390607 6.3125,-2.390625 2.42707,1.8e-5 4.21873,0.796892 5.375,2.390625 0.79165,1.104181 1.18748,2.458346 1.1875,4.0625 -2e-5,0.71876 -0.0781,1.484385 -0.23438,2.296875 -0.51043,2.645839 -1.65626,4.770837 -3.4375,6.3750005 -1.77084,1.5937503 -3.8698,2.3906245 -6.29687,2.390625"
           inkscape:connector-curvature="0" /><path
           id="path4064"
           style="fill:#333333"
           d="m 177.97986,-13.472476 c 0,-0.489576 0.26041,-1.916658 0.78125,-4.28125 0.53125,-2.374987 1.66145,-4.041652 3.39062,-5 1.72916,-0.958316 3.55208,-1.437482 5.46875,-1.4375 4.12499,1.8e-5 6.18749,1.395849 6.1875,4.1875 -10e-6,1.927095 -1.0573,3.307302 -3.17187,4.140625 0.95832,0.447925 1.67707,0.953133 2.15625,1.515625 0.48957,0.562507 0.73436,1.255215 0.73437,2.078125 -10e-6,1.968754 -0.85939,3.3958355 -2.57812,4.2812505 -1.71876,0.875 -3.64064,1.3124995 -5.76563,1.3125 -2.41667,-5e-7 -4.22396,-0.4375 -5.42187,-1.3125 -1.1875,-0.885415 -1.78125,-2.7135385 -1.78125,-5.4843755 m 3.26562,1.0625 c 0,1.697921 0.33854,2.8229196 1.01563,3.3750005 0.67708,0.541668 1.7552,0.8125011 3.23437,0.8125 0.95833,1.1e-6 2.02083,-0.2656237 3.1875,-0.796875 1.16666,-0.5312476 1.74999,-1.4635385 1.75,-2.7968755 -10e-6,-1.13541 -0.40626,-1.880201 -1.21875,-2.234375 -0.81251,-0.354159 -1.71876,-0.531242 -2.71875,-0.53125 -0.89584,8e-6 -2.57292,0.09897 -5.03125,0.296875 -0.14583,0.666674 -0.21875,1.291673 -0.21875,1.875 m 5.84375,-10.234375 c -1.75001,1.6e-5 -3,0.755224 -3.75,2.265625 -0.75,1.500012 -1.26563,2.979177 -1.54687,4.4375 3.78124,-0.24999 6.21874,-0.734365 7.3125,-1.453125 1.10415,-0.718739 1.65623,-1.744779 1.65625,-3.078125 -2e-5,-1.447901 -1.22397,-2.171859 -3.67188,-2.171875"
           inkscape:connector-curvature="0" /><path
           id="path4066"
           style="fill:#333333"
           d="m 206.87048,-9.7224755 c -1.38542,2.0312505 -3.19792,3.0468745 -5.4375,3.046875 -1.83333,-5e-7 -3.21354,-0.6197915 -4.14062,-1.859375 -0.64584,-0.8749977 -0.96875,-1.9374965 -0.96875,-3.1875005 0,-0.531244 0.0573,-1.093744 0.17187,-1.6875 0.70833,-3.677073 2.34375,-6.463528 4.90625,-8.359375 2.17708,-1.614567 4.58333,-2.421857 7.21875,-2.421875 1.77082,1.8e-5 2.95832,0.151059 3.5625,0.453125 l -2.90625,14.9531255 2.46875,0 -0.3125,1.65625 -5.0625,0 0.5,-2.59375 m -7.51562,-2.0937505 c -1e-5,2.2291696 1.07812,3.3437518 3.23437,3.3437505 1.31249,1.3e-6 2.41145,-0.5208315 3.29688,-1.5625005 0.89582,-1.052079 1.54165,-2.578119 1.9375,-4.578125 l 1.45312,-7.53125 0,0 c -10e-6,-0.302068 -0.41668,-0.453109 -1.25,-0.453125 -2.00001,1.6e-5 -3.77605,0.781265 -5.32812,2.34375 -1.54167,1.572929 -2.58855,3.786468 -3.14063,6.640625 -0.13542,0.666673 -0.20313,1.265631 -0.20312,1.796875"
           inkscape:connector-curvature="0" /><path
           id="path4068"
           style="fill:#333333"
           d="m 215.40173,-11.691226 1.73438,0 c 0,1.312504 0.2552,2.2187528 0.76562,2.7187505 0.51042,0.5000013 1.17187,0.7500011 1.98438,0.75 1.28124,1.1e-6 2.46874,-0.8854147 3.5625,-2.6562505 1.09374,-1.781244 1.64061,-4.244783 1.64062,-7.390625 -10e-6,-1.33332 -0.17709,-2.395819 -0.53125,-3.1875 -0.34376,-0.791651 -1.07292,-1.187484 -2.1875,-1.1875 -1.8125,1.6e-5 -3.14583,0.98439 -4,2.953125 l -2.25,0 c 0.55208,-1.312486 1.38021,-2.39061 2.48438,-3.234375 1.11458,-0.843733 2.47916,-1.265607 4.09375,-1.265625 2.08332,1.8e-5 3.54686,0.6146 4.39062,1.84375 0.85416,1.218764 1.28124,2.630221 1.28125,4.234375 -10e-6,0.218761 -0.0156,0.546886 -0.0469,0.984375 l 3.0625,0 1.28125,-6.609375 2.875,0 -1.28125,6.609375 3.0625,0 c 0.60414,-1.989571 1.58331,-3.661444 2.9375,-5.015625 1.35414,-1.364566 3.06247,-2.046857 5.125,-2.046875 0.92705,1.8e-5 1.74997,0.07293 2.46875,0.21875 0.71871,0.145851 1.54163,0.463559 2.46875,0.953125 l -0.73438,3.84375 -1.73437,0 c -4e-5,-1.312486 -0.25524,-2.218735 -0.76563,-2.71875 -0.51045,-0.499984 -1.1719,-0.749984 -1.98437,-0.75 -1.28128,1.6e-5 -2.46878,0.89064 -3.5625,2.671875 -1.09378,1.770845 -1.64065,4.229176 -1.64063,7.375 -2e-5,1.333338 0.17185,2.395837 0.51563,3.1875005 0.35414,0.7916681 1.08851,1.1875011 2.20312,1.1875 1.81247,1.1e-6 3.14581,-0.984373 4,-2.9531255 l 2.25,0 c -0.55211,1.3125032 -1.38545,2.3906271 -2.5,3.2343755 -1.10419,0.8437499 -2.46357,1.2656245 -4.07812,1.265625 -2.08336,-5e-7 -3.55211,-0.6093749 -4.40625,-1.828125 -0.84377,-1.2291641 -1.26565,-2.6458295 -1.26563,-4.2500005 -2e-5,-0.749993 0.0781,-1.562492 0.23438,-2.4375 l -2.96875,0 -1.5625,8.0625005 -2.875,0 1.5625,-8.0625005 -2.96875,0 c -2e-5,0.09376 -0.12502,0.578133 -0.375,1.453125 -0.54168,1.927088 -1.50522,3.588545 -2.89063,4.9843755 -1.38542,1.3854169 -3.10938,2.0781245 -5.17187,2.078125 -0.92709,-5e-7 -1.75001,-0.072917 -2.46875,-0.21875 -0.71875,-0.1458335 -1.54167,-0.4635415 -2.46875,-0.953125 l 0.73437,-3.8437505"
           inkscape:connector-curvature="0" /><path
           id="path4070"
           style="fill:#333333"
           d="m 262.30798,-9.7224755 c -1.38542,2.0312505 -3.19792,3.0468745 -5.4375,3.046875 -1.83333,-5e-7 -3.21354,-0.6197915 -4.14062,-1.859375 -0.64584,-0.8749977 -0.96875,-1.9374965 -0.96875,-3.1875005 0,-0.531244 0.0573,-1.093744 0.17187,-1.6875 0.70833,-3.677073 2.34375,-6.463528 4.90625,-8.359375 2.17708,-1.614567 4.58333,-2.421857 7.21875,-2.421875 1.77082,1.8e-5 2.95832,0.151059 3.5625,0.453125 l -2.90625,14.9531255 2.46875,0 -0.3125,1.65625 -5.0625,0 0.5,-2.59375 m -7.51562,-2.0937505 c -1e-5,2.2291696 1.07812,3.3437518 3.23437,3.3437505 1.31249,1.3e-6 2.41145,-0.5208315 3.29688,-1.5625005 0.89582,-1.052079 1.54165,-2.578119 1.9375,-4.578125 l 1.45312,-7.53125 0,0 c -10e-6,-0.302068 -0.41668,-0.453109 -1.25,-0.453125 -2.00001,1.6e-5 -3.77605,0.781265 -5.32812,2.34375 -1.54167,1.572929 -2.58855,3.786468 -3.14063,6.640625 -0.13542,0.666673 -0.20313,1.265631 -0.20312,1.796875"
           inkscape:connector-curvature="0" /><path
           id="path4072"
           style="fill:#333333"
           d="m 271.10486,-13.081851 c 0,-0.739576 0.0781,-1.526034 0.23437,-2.359375 0.5625,-2.739572 1.72917,-4.880195 3.5,-6.421875 1.78125,-1.552067 3.82812,-2.328107 6.14063,-2.328125 2.3229,1.8e-5 4.34894,0.494809 6.07812,1.484375 l -0.8125,4.25 -1.67187,0 c 0.0208,-0.239571 0.0312,-0.463529 0.0312,-0.671875 -2e-5,-2.343735 -1.26564,-3.515609 -3.79688,-3.515625 -3.0625,1.6e-5 -5.01563,2.026056 -5.85937,6.078125 l 7.40625,0 -0.3125,1.640625 -7.4375,0 c -0.15626,0.895841 -0.23438,1.697923 -0.23438,2.40625 0,2.8645863 1.21875,4.2968766 3.65625,4.2968755 2.43749,1.1e-6 4.17707,-1.2968726 5.21875,-3.8906255 l 2.3125,0 c -0.63543,1.489587 -1.56772,2.770836 -2.79687,3.8437505 -1.22918,1.0625 -2.9271,1.5937495 -5.09375,1.59375 -2.54167,-5e-7 -4.35938,-0.7968747 -5.45313,-2.390625 -0.73958,-1.0937465 -1.10937,-2.4322875 -1.10937,-4.0156255"
           inkscape:connector-curvature="0" /><path
           id="path4074"
           style="fill:#333333"
           d="m 290.35486,-6.6756005 c -0.65625,-5e-7 -1.41667,-0.151042 -2.28125,-0.453125 l 0.35937,-1.953125 c 0.72917,0.3229183 1.36458,0.4843764 1.90625,0.484375 0.55208,1.4e-6 1.0625,-0.3177066 1.53125,-0.953125 0.71875,-0.9791635 1.35416,-2.8906195 1.90625,-5.7343755 l 1.3125,-6.796875 -1.89062,0 0.3125,-1.65625 5.98437,0 1.98438,11.421875 6.57812,-11.421875 4.01563,0 -2.90625,14.9531255 2.59375,0 -0.3125,1.65625 -5.46875,0 2.8125,-14.5000005 -7.4375,12.8281255 -2.29688,0 -2.26562,-12.8281255 -1.15625,6.71875 c -0.45834,2.656256 -1.06251,4.593754 -1.8125,5.8125005 -1.00001,1.6145837 -2.15626,2.4218745 -3.46875,2.421875"
           inkscape:connector-curvature="0" /><path
           id="path4076"
           style="fill:#333333"
           d="m 326.01111,-11.925601 1.65625,0 c -0.0521,0.302088 -0.0781,0.583338 -0.0781,0.84375 0,1.9062525 1.26042,2.8593766 3.78125,2.8593755 1.42708,1.1e-6 2.68229,-0.3645819 3.76563,-1.09375 1.08332,-0.7395805 1.62499,-1.6718715 1.625,-2.7968755 -1e-5,-0.718744 -0.35418,-1.380201 -1.0625,-1.984375 -0.70835,-0.614575 -1.96876,-0.921867 -3.78125,-0.921875 l -1.4375,0 0.3125,-1.65625 0.75,0 c 1.82291,10e-6 3.27603,-0.291656 4.35937,-0.875 1.08332,-0.593739 1.62499,-1.463529 1.625,-2.609375 -1e-5,-0.635403 -0.28647,-1.187485 -0.85937,-1.65625 -0.57293,-0.479151 -1.41147,-0.718734 -2.51563,-0.71875 -1.10417,1.6e-5 -2.11459,0.286474 -3.03125,0.859375 -0.90625,0.572931 -1.54688,1.333347 -1.92187,2.28125 l -2.15625,0 c 0.66666,-1.718736 1.69791,-2.947901 3.09375,-3.6875 1.40624,-0.739566 2.85936,-1.109357 4.35937,-1.109375 3.88541,1.8e-5 5.82811,1.151058 5.82813,3.453125 -2e-5,0.29168 -0.0313,0.609388 -0.0937,0.953125 -0.32293,1.645845 -1.08335,2.697927 -2.28125,3.15625 -1.19793,0.458343 -1.9271,0.697926 -2.1875,0.71875 1.49999,0.208342 2.52603,0.562509 3.07812,1.0625 0.55207,0.489591 0.82811,1.166674 0.82813,2.03125 -2e-5,2.250004 -0.88543,3.838544 -2.65625,4.7656255 -1.77085,0.9166666 -3.70314,1.3749995 -5.79688,1.375 -2.10417,-5e-7 -4.08854,-0.4583334 -5.95312,-1.375 l 0.75,-3.8750005"
           inkscape:connector-curvature="0" /><path
           id="path4078"
           style="fill:#333333"
           d="m 346.55798,-13.503726 c -0.0417,0.39584 -0.0625,0.770839 -0.0625,1.125 0,0.979171 0.17708,1.791671 0.53125,2.4375005 0.61458,1.145835 1.74479,1.7187511 3.39063,1.71875 1.20832,1.1e-6 2.10936,-0.1822904 2.70312,-0.546875 1.06249,-0.6562477 1.71874,-1.4062465 1.96875,-2.2500005 l 2.10938,0 c -0.41668,1.3229197 -1.40106,2.4479186 -2.95313,3.3750005 -1.08334,0.6458332 -2.69792,0.9687495 -4.84375,0.96875 -2.14584,-5e-7 -3.79688,-0.7968747 -4.95312,-2.390625 -0.8125,-1.1145805 -1.21875,-2.4791625 -1.21875,-4.0937505 0,-0.708326 0.0781,-1.463534 0.23437,-2.265625 0.51042,-2.635405 1.64583,-4.755195 3.40625,-6.359375 1.76041,-1.60415 3.89062,-2.406232 6.39063,-2.40625 4.0729,1.8e-5 6.10936,1.442724 6.10937,4.328125 -10e-6,2.114594 -1.06772,3.68751 -3.20312,4.71875 -2.1771,1.052091 -5.38022,1.598965 -9.60938,1.640625 m 8.01563,-3.5 c 1.16665,-0.687489 1.74998,-1.677071 1.75,-2.96875 -2e-5,-1.781235 -1.18231,-2.671859 -3.54688,-2.671875 -1.39584,1.6e-5 -2.57813,0.531265 -3.54687,1.59375 -0.96876,1.062513 -1.75001,3.026053 -2.34375,5.890625 3.34374,-0.156241 5.90624,-0.770824 7.6875,-1.84375"
           inkscape:connector-curvature="0" /><path
           id="path4080"
           style="fill:#333333"
           d="m 363.47986,-6.6756005 c -0.65625,-5e-7 -1.41667,-0.151042 -2.28125,-0.453125 l 0.35937,-1.953125 c 0.72917,0.3229183 1.36458,0.4843764 1.90625,0.484375 0.55208,1.4e-6 1.0625,-0.3177066 1.53125,-0.953125 0.71875,-0.9791635 1.35416,-2.8906195 1.90625,-5.7343755 l 1.3125,-6.796875 -1.89062,0 0.3125,-1.65625 5.98437,0 1.98438,11.421875 6.57812,-11.421875 4.01563,0 -2.90625,14.9531255 2.59375,0 -0.3125,1.65625 -5.46875,0 2.8125,-14.5000005 -7.4375,12.8281255 -2.29688,0 -2.26562,-12.8281255 -1.15625,6.71875 c -0.45834,2.656256 -1.06251,4.593754 -1.8125,5.8125005 -1.00001,1.6145837 -2.15626,2.4218745 -3.46875,2.421875"
           inkscape:connector-curvature="0" /><path
           id="path4082"
           style="fill:#333333"
           d="m 392.58923,-7.3787255 c -0.78125,0.4687498 -1.5625,0.7031245 -2.34375,0.703125 -0.78125,-5e-7 -1.60937,-0.151042 -2.48437,-0.453125 l 0.375,-1.953125 c 0.72916,0.3229183 1.36458,0.4843764 1.90625,0.484375 1.05208,1.4e-6 1.80208,-0.3177066 2.25,-0.953125 0.45833,-0.6354135 1.20833,-2.5156205 2.25,-5.6406255 1.04166,-3.135405 1.84895,-5.08332 2.42187,-5.84375 1.32291,-1.802067 3.85936,-2.703108 7.60938,-2.703125 l 1.03125,0 -2.90625,14.9531255 2.57812,0 -0.3125,1.65625 -5.45312,0 2.85937,-14.7187505 c -0.87501,1.5e-5 -1.77605,0.229182 -2.70312,0.6875 -0.9271,0.447931 -1.70314,1.645846 -2.32813,3.59375 -1.31251,4.11459 -2.33855,6.937504 -3.07812,8.4687505 -0.33334,0.6770846 -0.89063,1.2500007 -1.67188,1.71875"
           inkscape:connector-curvature="0" /><path
           id="path4084"
           style="fill:#333333"
           d="m 410.12048,-22.097476 0.3125,-1.640625 5.64063,0 -1.45313,7.515625 3.82813,0 c 0.56249,-2.291655 1.68228,-4.192695 3.35937,-5.703125 1.68749,-1.5104 3.74478,-2.265607 6.17188,-2.265625 2.42706,1.8e-5 4.21872,0.796892 5.375,2.390625 0.79164,1.104181 1.18747,2.458346 1.1875,4.0625 -3e-5,0.71876 -0.0781,1.484385 -0.23438,2.296875 -0.51044,2.645839 -1.65627,4.770837 -3.4375,6.3750005 -1.77085,1.5937503 -3.87502,2.3906245 -6.3125,2.390625 -2.42709,-5e-7 -4.17188,-0.7499997 -5.23437,-2.25 -0.8646,-1.2083305 -1.29689,-2.6197875 -1.29688,-4.2343755 -10e-6,-0.38541 0.026,-0.786451 0.0781,-1.203125 l -3.84375,0 -1.40625,7.2343755 -2.875,0 2.90625,-14.9687505 -2.76563,0 m 11.17188,9.53125 c -2e-5,2.8958363 1.19269,4.3437516 3.57812,4.3437505 3.11457,1.1e-6 5.14061,-2.4062465 6.07813,-7.2187505 0.20831,-1.083323 0.31247,-2.046864 0.3125,-2.890625 -3e-5,-2.874985 -1.19273,-4.312484 -3.57813,-4.3125 -3.1146,1.6e-5 -5.14064,2.401055 -6.07812,7.203125 -0.20835,1.083341 -0.31252,2.041673 -0.3125,2.875"
           inkscape:connector-curvature="0" /><path
           id="path4086"
           style="fill:#333333"
           d="m 436.55798,-4.0193505 c 1.125,-0.7187524 2.01042,-1.5677099 2.65625,-2.546875 0.64583,-0.9687496 1.10417,-2.1458318 1.375,-3.5312505 l 0.10938,-0.578125 3.07812,0 c -0.42709,1.7812522 -1.14584,3.3072924 -2.15625,4.5781255 -1,1.2812477 -2.34896,2.3906215 -4.04687,3.328125 l -1.01563,-1.25"
           inkscape:connector-curvature="0" /><path
           id="path4088"
           style="fill:#333333"
           d="m 459.37048,-6.6756005 c -0.90625,-5e-7 -1.79687,-0.151042 -2.67187,-0.453125 l 0.375,-1.953125 c 0.72916,0.3229183 1.33854,0.4843764 1.82812,0.484375 1,1.4e-6 1.68229,-0.3281232 2.04688,-0.984375 l 2.01562,-3.6562505 c 0.52083,-0.947909 1.36979,-1.578117 2.54688,-1.890625 -1.03126,-0.145825 -1.96876,-0.510408 -2.8125,-1.09375 -0.84376,-0.59374 -1.26563,-1.390614 -1.26563,-2.390625 0,-0.291654 0.0365,-0.609362 0.10938,-0.953125 0.23958,-1.239569 0.87499,-2.244777 1.90625,-3.015625 1.03124,-0.770817 2.35416,-1.156233 3.96875,-1.15625 l 7.82812,0 -2.90625,14.9531255 2.59375,0 -0.32812,1.65625 -5.46875,0 1.5,-7.7187505 -1.67188,0 c -1.48959,8e-6 -2.67188,0.812507 -3.54687,2.4375 l -1.71875,3.1875005 c -0.91667,1.697917 -2.35938,2.5468745 -4.32813,2.546875 m 5.14063,-11.9687505 c -10e-6,0.541678 0.18228,1.041678 0.54687,1.5 0.36458,0.458343 1.11458,0.68751 2.25,0.6875 l 3.64063,0 1.09375,-5.625 -3.64063,0 c -1.12501,1.5e-5 -2.00001,0.260432 -2.625,0.78125 -0.84376,0.697931 -1.26563,1.583346 -1.26562,2.65625"
           inkscape:connector-curvature="0" /><path
           id="path4090"
           style="fill:#333333"
           d="m 479.74548,-7.1287255 2.90625,-14.9375005 -2.75,0 0.32813,-1.671875 5.625,0 -1.45313,7.453125 c 0.0312,10e-6 0.32812,-0.244782 0.89063,-0.734375 0.57291,-0.499989 0.96353,-0.859364 1.17187,-1.078125 l 3.90625,-3.96875 c 1.37499,-1.41665 2.48957,-2.124982 3.34375,-2.125 0.85415,1.8e-5 1.81769,0.182309 2.89063,0.546875 l -0.53125,2.625 -1.85938,0 c -10e-6,-0.802068 -0.3698,-1.203109 -1.10937,-1.203125 -0.40627,1.6e-5 -0.97397,0.375015 -1.70313,1.125 l -3.84375,3.9375 c -0.28126,0.302094 -0.69792,0.692718 -1.25,1.171875 l 0.67188,0.1875 c 1.1979,0.322925 2.07811,0.6198 2.64062,0.890625 0.92707,0.552091 1.47395,1.33334 1.64063,2.34375 l 0.46875,2.8437505 c 0.12498,0.7500018 0.52603,1.1250014 1.20312,1.125 0.67707,1.4e-6 1.2604,-0.7499978 1.75,-2.2500005 l 1.375,0.28125 c -0.33335,1.7291688 -1.0521,2.890626 -2.15625,3.4843755 -0.50001,0.270833 -1.01564,0.4062495 -1.54687,0.40625 -1.34377,-5e-7 -2.30731,-0.3593751 -2.89063,-1.078125 -0.31251,-0.4583323 -0.55209,-1.1979149 -0.71875,-2.21875 l -0.32812,-2.0937505 c -0.18751,-1.187493 -0.78647,-1.942701 -1.79688,-2.265625 l -1.71875,-0.453125 -0.90625,0.65625 -1.375,7.0000005 -2.875,0"
           inkscape:connector-curvature="0" /><path
           id="path4092"
           style="fill:#333333"
           d="m 522.62048,-12.113101 c -0.75001,1.770837 -1.79689,3.119794 -3.14062,4.0468755 -1.33335,0.9270833 -2.91668,1.3906245 -4.75,1.390625 -2.41667,-5e-7 -4.20313,-0.7968747 -5.35938,-2.390625 -0.80208,-1.1145805 -1.20312,-2.4739535 -1.20312,-4.0781255 0,-0.718743 0.0781,-1.484367 0.23437,-2.296875 0.52083,-2.656239 1.66667,-4.776028 3.4375,-6.359375 1.78125,-1.593733 3.8802,-2.390607 6.29688,-2.390625 1.05207,1.8e-5 2.0729,0.125017 3.0625,0.375 0.99998,0.2396 1.97394,0.609392 2.92187,1.109375 l -0.8125,4.25 -1.67187,0 c -2e-5,-0.145821 -2e-5,-0.281238 0,-0.40625 -2e-5,-1.249987 -0.27085,-2.177069 -0.8125,-2.78125 -0.60418,-0.666651 -1.58856,-0.999984 -2.95313,-1 -1.55209,1.6e-5 -2.84375,0.604182 -3.875,1.8125 -1.02084,1.19793 -1.76563,2.994803 -2.23437,5.390625 -0.20834,1.093758 -0.31251,2.067715 -0.3125,2.921875 -10e-6,1.000005 0.14583,1.828129 0.4375,2.484375 0.55208,1.2083355 1.60937,1.8125016 3.17187,1.8125005 1.23958,1.1e-6 2.29166,-0.3229153 3.15625,-0.96875 0.86457,-0.6458307 1.56249,-1.6197885 2.09375,-2.9218755 l 2.3125,0"
           inkscape:connector-curvature="0" /><path
           id="path4094"
           style="fill:#333333"
           d="m 526.10486,-13.472476 c 0,-0.489576 0.26041,-1.916658 0.78125,-4.28125 0.53125,-2.374987 1.66145,-4.041652 3.39062,-5 1.72916,-0.958316 3.55208,-1.437482 5.46875,-1.4375 4.12499,1.8e-5 6.18749,1.395849 6.1875,4.1875 -1e-5,1.927095 -1.0573,3.307302 -3.17187,4.140625 0.95832,0.447925 1.67707,0.953133 2.15625,1.515625 0.48957,0.562507 0.73436,1.255215 0.73437,2.078125 -1e-5,1.968754 -0.85939,3.3958355 -2.57812,4.2812505 -1.71876,0.875 -3.64064,1.3124995 -5.76563,1.3125 -2.41667,-5e-7 -4.22396,-0.4375 -5.42187,-1.3125 -1.1875,-0.885415 -1.78125,-2.7135385 -1.78125,-5.4843755 m 3.26562,1.0625 c 0,1.697921 0.33854,2.8229196 1.01563,3.3750005 0.67708,0.541668 1.7552,0.8125011 3.23437,0.8125 0.95833,1.1e-6 2.02083,-0.2656237 3.1875,-0.796875 1.16666,-0.5312476 1.74999,-1.4635385 1.75,-2.7968755 -1e-5,-1.13541 -0.40626,-1.880201 -1.21875,-2.234375 -0.81251,-0.354159 -1.71876,-0.531242 -2.71875,-0.53125 -0.89584,8e-6 -2.57292,0.09897 -5.03125,0.296875 -0.14583,0.666674 -0.21875,1.291673 -0.21875,1.875 m 5.84375,-10.234375 c -1.75001,1.6e-5 -3,0.755224 -3.75,2.265625 -0.75,1.500012 -1.26563,2.979177 -1.54687,4.4375 3.78124,-0.24999 6.21874,-0.734365 7.3125,-1.453125 1.10415,-0.718739 1.65623,-1.744779 1.65625,-3.078125 -2e-5,-1.447901 -1.22397,-2.171859 -3.67188,-2.171875"
           inkscape:connector-curvature="0" /><path
           id="path4096"
           style="fill:#333333"
           d="m 551.58923,-8.2224755 c 1.54166,1.1e-6 2.82291,-0.6093733 3.84375,-1.8281255 1.03124,-1.218745 1.77603,-3.015619 2.23438,-5.390625 0.20832,-1.083323 0.31248,-2.046864 0.3125,-2.890625 -2e-5,-0.999987 -0.14585,-1.828111 -0.4375,-2.484375 -0.5521,-1.218735 -1.59897,-1.828109 -3.14063,-1.828125 -1.54167,1.6e-5 -2.82813,0.60939 -3.85937,1.828125 -1.02084,1.208346 -1.76042,3.000011 -2.21875,5.375 -0.20834,1.083341 -0.31251,2.041673 -0.3125,2.875 -10e-6,1.010422 0.15104,1.848962 0.45312,2.515625 0.55208,1.2187522 1.59375,1.8281266 3.125,1.8281255 m -0.29687,1.546875 c -2.41667,-5e-7 -4.20313,-0.7968747 -5.35938,-2.390625 -0.80208,-1.1145805 -1.20312,-2.4739535 -1.20312,-4.0781255 0,-0.718743 0.0781,-1.484367 0.23437,-2.296875 0.51042,-2.645822 1.65104,-4.765611 3.42188,-6.359375 1.78124,-1.593733 3.88541,-2.390607 6.3125,-2.390625 2.42707,1.8e-5 4.21873,0.796892 5.375,2.390625 0.79165,1.104181 1.18748,2.458346 1.1875,4.0625 -2e-5,0.71876 -0.0781,1.484385 -0.23438,2.296875 -0.51043,2.645839 -1.65626,4.770837 -3.4375,6.3750005 -1.77084,1.5937503 -3.8698,2.3906245 -6.29687,2.390625"
           inkscape:connector-curvature="0" /><path
           id="path4098"
           style="fill:#333333"
           d="m 568.10486,-8.7849755 2.71875,0 -0.3125,1.65625 -5.59375,0 2.90625,-14.9375005 -2.75,0 0.3125,-1.671875 5.625,0 -2.90625,14.9531255 m -0.0156,-22.8593755 c 0.5,2.5e-5 0.89583,0.182316 1.1875,0.546875 0.28125,0.354191 0.375,0.781274 0.28125,1.28125 -0.10417,0.531273 -0.35938,0.968772 -0.76562,1.3125 -0.41667,0.343772 -0.89063,0.515646 -1.42188,0.515625 -0.52083,2.1e-5 -0.91667,-0.171853 -1.1875,-0.515625 -0.28125,-0.343728 -0.36979,-0.781227 -0.26562,-1.3125 0.0937,-0.499976 0.35937,-0.927059 0.79687,-1.28125 0.42708,-0.364559 0.88542,-0.54685 1.375,-0.546875 m 6.09375,0 c 0.48957,2.5e-5 0.8802,0.182316 1.17188,0.546875 0.28124,0.354191 0.37499,0.781274 0.28125,1.28125 -0.10418,0.531273 -0.35939,0.968772 -0.76563,1.3125 -0.41668,0.343772 -0.88542,0.515646 -1.40625,0.515625 -0.53126,2.1e-5 -0.9323,-0.171853 -1.20312,-0.515625 -0.28126,-0.343728 -0.3698,-0.781227 -0.26563,-1.3125 0.0937,-0.499976 0.35937,-0.927059 0.79688,-1.28125 0.42707,-0.364559 0.89061,-0.54685 1.39062,-0.546875"
           inkscape:connector-curvature="0" /><path
           id="path4100"
           style="fill:#333333"
           d="m 574.91736,-7.1287255 -1.95313,0 7.32813,-7.9687505 -3.6875,-6.96875 -2.04688,0 0.3125,-1.671875 4.21875,0 3.45313,6.46875 5.95312,-6.46875 1.95313,0 -7.1875,7.8125 3.79687,7.1406255 2.17188,0 -0.3125,1.65625 -4.35938,0 -3.53125,-6.6250005 -6.10937,6.6250005"
           inkscape:connector-curvature="0" /><path
           id="path4102"
           style="fill:#333333"
           d="m 602.68298,-13.316226 c 0,-0.666659 0.0521,-1.374992 0.15625,-2.125 l 0.39063,-2.75 c 0.28125,-1.98957 0.67708,-3.666651 1.1875,-5.03125 0.52083,-1.374982 0.89583,-2.239565 1.125,-2.59375 1.10416,-1.781229 2.70832,-3.135394 4.8125,-4.0625 0.64582,-0.281226 1.84374,-0.578101 3.59375,-0.890625 1.7604,-0.312476 2.74477,-0.479142 2.95312,-0.5 0.21874,-0.02081 0.58853,-0.124975 1.10938,-0.3125 0.52081,-0.197892 0.8854,-0.432266 1.09375,-0.703125 l 1.65625,0 c -0.3021,0.718775 -0.93752,1.546899 -1.90625,2.484375 -0.96877,0.927106 -1.95835,1.484397 -2.96875,1.671875 -3.37501,0.593771 -5.43751,1.03127 -6.1875,1.3125 -0.73959,0.270853 -1.64063,0.927103 -2.70313,1.96875 -0.82292,0.812517 -1.47396,2.416682 -1.95312,4.8125 0.80208,-1.145819 1.74999,-2.119776 2.84375,-2.921875 1.10416,-0.8229 2.66666,-1.234357 4.6875,-1.234375 2.41665,1.8e-5 4.20311,0.796892 5.35937,2.390625 0.80207,1.104181 1.20311,2.463554 1.20313,4.078125 -2e-5,0.708344 -0.0781,1.46876 -0.23438,2.28125 -0.52085,2.645839 -1.66668,4.770837 -3.4375,6.3750005 -1.77084,1.5937503 -3.8698,2.3906245 -6.29687,2.390625 -2.41667,-5e-7 -4.17709,-0.7604164 -5.28125,-2.28125 -0.80209,-1.1145805 -1.20313,-2.5677035 -1.20313,-4.3593755 m 3.1875,0.765625 c 0,2.8854197 1.19791,4.3281266 3.59375,4.3281255 3.11458,1.1e-6 5.14061,-2.4062465 6.07813,-7.2187505 0.20832,-1.104157 0.31248,-2.078114 0.3125,-2.921875 -2e-5,-2.854152 -1.19793,-4.281234 -3.59375,-4.28125 -3.11459,1.6e-5 -5.13542,2.401055 -6.0625,7.203125 -0.21876,1.083341 -0.32813,2.046882 -0.32813,2.890625"
           inkscape:connector-curvature="0" /><path
           id="path4104"
           style="fill:#333333"
           d="m 632.30798,-9.7224755 c -1.38542,2.0312505 -3.19792,3.0468745 -5.4375,3.046875 -1.83333,-5e-7 -3.21354,-0.6197915 -4.14062,-1.859375 -0.64584,-0.8749977 -0.96875,-1.9374965 -0.96875,-3.1875005 0,-0.531244 0.0573,-1.093744 0.17187,-1.6875 0.70833,-3.677073 2.34375,-6.463528 4.90625,-8.359375 2.17708,-1.614567 4.58333,-2.421857 7.21875,-2.421875 1.77082,1.8e-5 2.95832,0.151059 3.5625,0.453125 l -2.90625,14.9531255 2.46875,0 -0.3125,1.65625 -5.0625,0 0.5,-2.59375 m -7.51562,-2.0937505 c -10e-6,2.2291696 1.07812,3.3437518 3.23437,3.3437505 1.31249,1.3e-6 2.41145,-0.5208315 3.29688,-1.5625005 0.89582,-1.052079 1.54165,-2.578119 1.9375,-4.578125 l 1.45312,-7.53125 0,0 c -1e-5,-0.302068 -0.41668,-0.453109 -1.25,-0.453125 -2.00001,1.6e-5 -3.77605,0.781265 -5.32812,2.34375 -1.54167,1.572929 -2.58855,3.786468 -3.14063,6.640625 -0.13542,0.666673 -0.20313,1.265631 -0.20312,1.796875"
           inkscape:connector-curvature="0" /><path
           id="path4106"
           style="fill:#333333"
           d="m 657.26111,-20.503726 c 0.79165,-1.218735 1.67706,-2.135401 2.65625,-2.75 0.97914,-0.624983 2.04164,-0.937482 3.1875,-0.9375 1.73956,1.8e-5 2.93226,0.541684 3.57812,1.625 0.38539,0.645849 0.5781,1.494806 0.57813,2.546875 -3e-5,0.687513 -0.0834,1.463554 -0.25,2.328125 l -1.73438,8.9062505 2.59375,0 -0.3125,1.65625 -5.46875,0 1.98438,-10.2343755 c 0.15622,-0.812488 0.23435,-1.510404 0.23437,-2.09375 -2e-5,-0.64582 -0.0938,-1.156236 -0.28125,-1.53125 -0.35419,-0.718735 -1.10939,-1.07811 -2.26562,-1.078125 -1.28127,1.5e-5 -2.35419,0.48439 -3.21875,1.453125 -0.85419,0.968763 -1.46356,2.38022 -1.82813,4.234375 l -1.79687,9.2500005 -2.875,0 2.01562,-10.3437505 c 0.14582,-0.781238 0.21874,-1.453113 0.21875,-2.015625 -1e-5,-0.64582 -0.0938,-1.151028 -0.28125,-1.515625 -0.36459,-0.708318 -1.12501,-1.062485 -2.28125,-1.0625 -1.28126,1.5e-5 -2.35417,0.48439 -3.21875,1.453125 -0.85417,0.968763 -1.46355,2.38022 -1.82812,4.234375 l -1.79688,9.2500005 -2.875,0 2.90625,-14.9687505 -2.75,0 0.3125,-1.640625 5.625,0 -0.5625,2.953125 c 0.73958,-1.104151 1.57812,-1.947901 2.51563,-2.53125 0.93749,-0.583316 1.92707,-0.874982 2.96875,-0.875 1.29165,1.8e-5 2.30727,0.322934 3.04687,0.96875 0.73957,0.635433 1.14061,1.541682 1.20313,2.71875"
           inkscape:connector-curvature="0" /><path
           id="path4108"
           style="fill:#333333"
           d="m 672.30798,-22.066226 0.32813,-1.671875 5.625,0 -1.39063,7.1875 c 1.375,-1.135406 2.71874,-1.703113 4.03125,-1.703125 2.27082,1.2e-5 3.69791,0.453136 4.28125,1.359375 0.58332,0.906259 0.87499,1.8698 0.875,2.890625 -1e-5,0.500007 -0.0573,1.031256 -0.17187,1.59375 -0.34377,1.770837 -1.11981,3.1718776 -2.32813,4.2031255 -1.20834,1.0208334 -2.8698,1.5312495 -4.98437,1.53125 -2.02084,-5e-7 -3.45313,-0.4739583 -4.29688,-1.421875 -0.83333,-0.9479148 -1.25,-1.9531225 -1.25,-3.0156255 0,-0.333329 0.0312,-0.661453 0.0937,-0.984375 l 1.9375,-9.96875 -2.75,0 m 3.5625,11.375 c 0,0.489587 0.16666,1.0260447 0.5,1.6093755 0.34375,0.572918 1.11458,0.8593761 2.3125,0.859375 1.19791,1.1e-6 2.21353,-0.4062485 3.04688,-1.21875 0.80207,-0.7604135 1.35936,-1.8645795 1.67187,-3.3125005 0.0833,-0.38541 0.12499,-0.833326 0.125,-1.34375 -1e-5,-0.499992 -0.19272,-1.052075 -0.57812,-1.65625 -0.37501,-0.604157 -1.14064,-0.90624 -2.29688,-0.90625 -1.14584,10e-6 -2.12501,0.31251 -2.9375,0.9375 -0.80209,0.625008 -1.27084,1.312508 -1.40625,2.0625 l -0.32812,1.6875 c -0.0729,0.385422 -0.10938,0.812505 -0.10938,1.28125"
           inkscape:connector-curvature="0" /><path
           id="path4110"
           style="fill:#333333"
           d="m 689.80798,-7.1287255 2.90625,-14.9375005 -2.75,0 0.32813,-1.671875 5.625,0 -1.45313,7.453125 c 0.0312,10e-6 0.32812,-0.244782 0.89063,-0.734375 0.57291,-0.499989 0.96353,-0.859364 1.17187,-1.078125 l 3.90625,-3.96875 c 1.37499,-1.41665 2.48957,-2.124982 3.34375,-2.125 0.85415,1.8e-5 1.81769,0.182309 2.89063,0.546875 l -0.53125,2.625 -1.85938,0 c -1e-5,-0.802068 -0.3698,-1.203109 -1.10937,-1.203125 -0.40627,1.6e-5 -0.97397,0.375015 -1.70313,1.125 l -3.84375,3.9375 c -0.28126,0.302094 -0.69792,0.692718 -1.25,1.171875 l 0.67188,0.1875 c 1.1979,0.322925 2.07811,0.6198 2.64062,0.890625 0.92707,0.552091 1.47395,1.33334 1.64063,2.34375 l 0.46875,2.8437505 c 0.12498,0.7500018 0.52603,1.1250014 1.20312,1.125 0.67707,1.4e-6 1.2604,-0.7499978 1.75,-2.2500005 l 1.375,0.28125 c -0.33335,1.7291688 -1.0521,2.890626 -2.15625,3.4843755 -0.50001,0.270833 -1.01564,0.4062495 -1.54687,0.40625 -1.34377,-5e-7 -2.30731,-0.3593751 -2.89063,-1.078125 -0.31251,-0.4583323 -0.55209,-1.1979149 -0.71875,-2.21875 l -0.32812,-2.0937505 c -0.18751,-1.187493 -0.78647,-1.942701 -1.79688,-2.265625 l -1.71875,-0.453125 -0.90625,0.65625 -1.375,7.0000005 -2.875,0"
           inkscape:connector-curvature="0" /><path
           id="path4112"
           style="fill:#333333"
           d="m 711.72986,-28.894351 c 0.0937,-0.479144 0.34895,-0.89581 0.76562,-1.25 0.41666,-0.354143 0.86979,-0.531226 1.35938,-0.53125 0.47916,2.4e-5 0.85937,0.177107 1.14062,0.53125 0.21874,0.270857 0.32812,0.57294 0.32813,0.90625 -10e-6,0.114606 -0.0156,0.229189 -0.0469,0.34375 -0.0938,0.489605 -0.34896,0.906271 -0.76562,1.25 -0.40626,0.343771 -0.85418,0.515645 -1.34375,0.515625 -0.48959,2e-5 -0.87501,-0.171854 -1.15625,-0.515625 -0.20834,-0.260395 -0.31251,-0.55727 -0.3125,-0.890625 -10e-6,-0.114561 0.0104,-0.234353 0.0312,-0.359375 m -0.23438,20.1093755 2.71875,0 -0.3125,1.65625 -5.59375,0 2.89063,-14.9375005 -2.75,0 0.32812,-1.671875 5.625,0 -2.90625,14.9531255"
           inkscape:connector-curvature="0" /><path
           id="path4114"
           style="fill:#333333"
           d="m 718.29236,-13.472476 c 0,-0.489576 0.26041,-1.916658 0.78125,-4.28125 0.53125,-2.374987 1.66145,-4.041652 3.39062,-5 1.72916,-0.958316 3.55208,-1.437482 5.46875,-1.4375 4.12499,1.8e-5 6.18749,1.395849 6.1875,4.1875 -1e-5,1.927095 -1.0573,3.307302 -3.17187,4.140625 0.95832,0.447925 1.67707,0.953133 2.15625,1.515625 0.48957,0.562507 0.73436,1.255215 0.73437,2.078125 -1e-5,1.968754 -0.85939,3.3958355 -2.57812,4.2812505 -1.71876,0.875 -3.64064,1.3124995 -5.76563,1.3125 -2.41667,-5e-7 -4.22396,-0.4375 -5.42187,-1.3125 -1.1875,-0.885415 -1.78125,-2.7135385 -1.78125,-5.4843755 m 3.26562,1.0625 c 0,1.697921 0.33854,2.8229196 1.01563,3.3750005 0.67708,0.541668 1.7552,0.8125011 3.23437,0.8125 0.95833,1.1e-6 2.02083,-0.2656237 3.1875,-0.796875 1.16666,-0.5312476 1.74999,-1.4635385 1.75,-2.7968755 -1e-5,-1.13541 -0.40626,-1.880201 -1.21875,-2.234375 -0.81251,-0.354159 -1.71876,-0.531242 -2.71875,-0.53125 -0.89584,8e-6 -2.57292,0.09897 -5.03125,0.296875 -0.14583,0.666674 -0.21875,1.291673 -0.21875,1.875 m 5.84375,-10.234375 c -1.75001,1.6e-5 -3,0.755224 -3.75,2.265625 -0.75,1.500012 -1.26563,2.979177 -1.54687,4.4375 3.78124,-0.24999 6.21874,-0.734365 7.3125,-1.453125 1.10415,-0.718739 1.65623,-1.744779 1.65625,-3.078125 -2e-5,-1.447901 -1.22397,-2.171859 -3.67188,-2.171875"
           inkscape:connector-curvature="0" /></g><rect
         transform="scale(1,-1)"
         y="-3.5580802"
         x="127.62917"
         height="3.881109"
         width="623.5434"
         id="rect4049-3"
         style="fill:#ffdd55;fill-opacity:1;stroke:none" /></g></g></svg>